<svg width="546" height="194" viewBox="0 0 546 194" fill="none" xmlns="http://www.w3.org/2000/svg">
<g clip-path="url(#clip0_124_615)">
<path d="M149.692 19.5398H85.8193L40.8736 83.8167H87.6703L107.106 53.3012V119.729H64.7803L74.6089 104.308H26.5479L13.8906 122.414V159.382H103.886V170.449H149.692V159.382H171.657V119.729H149.692V19.5398Z" fill="#87E3CE"/>
<path d="M149.693 183.484H103.887V194.199H149.693V183.484Z" fill="#87E3CE"/>
<path d="M269.421 150.531C264.729 150.649 260.082 149.591 255.903 147.455C252.367 145.679 249.326 143.055 247.052 139.816C244.719 136.117 243.044 132.042 242.099 127.772C240.893 123.024 240.087 118.185 239.687 113.303C239.331 108.662 239.153 103.127 239.153 96.6958C239.153 90.2651 239.326 84.8076 239.674 80.3235H194.807C194.381 85.5376 194.164 90.995 194.155 96.6958C194.011 109.621 195.358 122.52 198.17 135.137C200.613 145.91 204.871 156.19 210.762 165.535C216.492 174.479 224.623 181.63 234.225 186.17C244.132 190.984 255.864 193.391 269.421 193.391C282.977 193.391 294.709 190.984 304.616 186.17C314.216 181.626 322.346 174.476 328.079 165.535C331.434 160.251 334.243 154.638 336.461 148.785H279.992C276.602 149.997 273.021 150.589 269.421 150.531Z" fill="#87E3CE"/>
<path d="M247.053 53.5749C249.335 50.3438 252.374 47.721 255.904 45.9363C260.125 43.9126 264.747 42.862 269.428 42.862C274.109 42.862 278.731 43.9126 282.952 45.9363C286.476 47.7246 289.51 50.3468 291.79 53.5749C294.118 57.2768 295.794 61.3508 296.744 65.6195C297.954 70.3659 298.761 75.2062 299.155 80.0887C299.503 84.7292 299.681 90.2649 299.69 96.6956C299.698 103.126 299.52 108.662 299.155 113.303C298.762 118.185 297.955 123.026 296.744 127.772C296.496 128.762 296.222 129.701 295.948 130.626H341.65C343.772 119.456 344.794 108.104 344.7 96.7347C344.847 83.8085 343.495 70.9088 340.672 58.2937C338.231 47.5218 333.977 37.2428 328.093 27.8954C322.359 18.9584 314.229 11.8128 304.63 7.27364C294.714 2.45059 282.983 0.0390625 269.435 0.0390625C255.887 0.0390625 244.155 2.45059 234.239 7.27364C224.638 11.8093 216.507 18.9557 210.776 27.8954C204.888 37.2422 200.63 47.5211 198.184 58.2937L197.949 59.4017H244.094C244.871 57.3598 245.863 55.4066 247.053 53.5749Z" fill="#87E3CE"/>
<path d="M75.013 83.8169H28.2164L13.8906 104.308H61.9517L75.013 83.8169Z" fill="#87E3CE"/>
<path d="M159.013 170.449H113.207V183.484H159.013V170.449Z" fill="#87E3CE"/>
<path d="M165.075 1.34277H113.912L101.189 19.54H165.075V1.34277Z" fill="#87E3CE"/>
<path d="M511.135 19.5398H447.25L402.317 83.8167H449.114L468.549 53.3012V119.729H426.224L436.052 104.308H387.991L375.334 122.414V159.382H465.33V170.449H511.135V159.382H533.1V119.729H511.135V19.5398Z" fill="#87E3CE"/>
<path d="M511.136 183.484H465.33V194.199H511.136V183.484Z" fill="#87E3CE"/>
<path d="M436.456 83.8169H389.66L375.334 104.308H423.395L436.456 83.8169Z" fill="#87E3CE"/>
<path d="M520.456 170.449H474.65V183.484H520.456V170.449Z" fill="#87E3CE"/>
<path d="M526.504 1.34277H475.34L462.631 19.54H526.504V1.34277Z" fill="#87E3CE"/>
<path d="M229.743 80.1411C230.139 75.2598 230.941 70.42 232.142 65.672C232.668 63.5448 233.334 61.4546 234.136 59.415H187.978C186.445 66.3199 185.4 73.3241 184.85 80.3757H229.717C229.73 80.2454 229.73 80.1411 229.743 80.1411Z" fill="#87E3CE"/>
<path d="M350.383 130.626H304.682C303.754 133.877 302.353 136.974 300.524 139.816C298.251 143.051 295.215 145.675 291.686 147.455C290.731 147.958 289.742 148.393 288.727 148.759H345.208C346.916 144.31 348.319 139.75 349.406 135.111C349.758 133.651 350.084 132.152 350.383 130.626Z" fill="#87E3CE"/>
<path d="M134.716 19.5398H70.8297L25.8971 83.8167H72.6937L92.1293 53.3012V119.729H49.8038L59.6324 104.308H11.5713L-1.08594 122.414V159.382H88.9226V170.449H134.716V159.382H156.68V119.729H134.716V19.5398Z" fill="#C0283F"/>
<path d="M134.73 183.484H88.9238V194.199H134.73V183.484Z" fill="#C0283F"/>
<path d="M254.444 150.531C249.752 150.649 245.105 149.591 240.926 147.455C237.392 145.682 234.355 143.057 232.089 139.816C229.746 136.121 228.065 132.045 227.122 127.772C225.917 123.024 225.11 118.185 224.711 113.303C224.363 108.662 224.185 103.127 224.176 96.6958C224.167 90.2651 224.341 84.8076 224.698 80.3235H179.83C179.396 85.5376 179.178 90.995 179.178 96.6958C179.035 109.621 180.382 122.52 183.193 135.137C185.637 145.91 189.895 156.19 195.785 165.535C201.515 174.479 209.646 181.63 219.249 186.17C229.156 190.984 240.887 193.391 254.444 193.391C268.001 193.391 279.732 190.984 289.639 186.17C299.239 181.626 307.37 174.476 313.103 165.535C316.458 160.251 319.266 154.638 321.484 148.785H265.016C261.625 149.997 258.044 150.589 254.444 150.531Z" fill="#C0283F"/>
<path d="M232.089 53.5749C234.362 50.3411 237.398 47.7175 240.927 45.9363C245.148 43.9126 249.77 42.862 254.451 42.862C259.132 42.862 263.754 43.9126 267.975 45.9363C271.499 47.7246 274.533 50.3468 276.813 53.5749C279.146 57.2741 280.822 61.349 281.766 65.6195C282.977 70.3659 283.784 75.2062 284.178 80.0887C284.543 84.7292 284.721 90.2649 284.712 96.6956C284.704 103.126 284.525 108.662 284.178 113.303C283.785 118.185 282.978 123.026 281.766 127.772C281.519 128.762 281.245 129.701 280.971 130.626H326.699C328.821 119.456 329.843 108.104 329.749 96.7347C329.896 83.8085 328.544 70.9088 325.721 58.2937C323.28 47.5218 319.026 37.2428 313.142 27.8954C307.408 18.9584 299.278 11.8128 289.679 7.27364C279.755 2.45059 268.023 0.0390625 254.484 0.0390625C240.944 0.0390625 229.212 2.45059 219.288 7.27364C209.687 11.8093 201.556 18.9557 195.825 27.8954C189.937 37.2422 185.679 47.5211 183.233 58.2937L182.998 59.4017H229.143C229.91 57.358 230.898 55.4041 232.089 53.5749Z" fill="#C0283F"/>
<path d="M60.0365 83.8169H13.2398L-1.08594 104.308H46.9751L60.0365 83.8169Z" fill="#C0283F"/>
<path d="M144.034 170.449H98.2285V183.484H144.034V170.449Z" fill="#C0283F"/>
<path d="M150.099 1.34277H98.9353L86.2129 19.54H150.099V1.34277Z" fill="#C0283F"/>
<path d="M496.157 19.5398H432.271L387.339 83.8167H434.135L453.571 53.3012V119.729H411.245L421.074 104.308H373.013L360.355 122.414V159.382H450.351V170.449H496.157V159.382H518.121V119.729H496.157V19.5398Z" fill="#C0283F"/>
<path d="M496.157 183.484H450.352V194.199H496.157V183.484Z" fill="#C0283F"/>
<path d="M421.478 83.8169H374.681L360.355 104.308H408.417L421.478 83.8169Z" fill="#C0283F"/>
<path d="M505.478 170.449H459.672V183.484H505.478V170.449Z" fill="#C0283F"/>
<path d="M511.527 1.34277H460.364L447.654 19.54H511.527V1.34277Z" fill="#C0283F"/>
<path d="M214.765 80.1411C215.159 75.2587 215.965 70.4183 217.176 65.672C217.699 63.5451 218.36 61.455 219.157 59.415H173C171.466 66.3199 170.421 73.3241 169.871 80.3757H214.739C214.752 80.2454 214.752 80.1411 214.765 80.1411Z" fill="#C0283F"/>
<path d="M335.407 130.626H289.705C288.777 133.877 287.376 136.974 285.547 139.816C283.274 143.051 280.239 145.675 276.709 147.455C275.754 147.958 274.765 148.393 273.75 148.759H330.232C331.94 144.31 333.342 139.75 334.429 135.111C334.781 133.651 335.107 132.152 335.407 130.626Z" fill="#C0283F"/>
<path d="M141.313 19.5398H77.4273L32.4947 83.8167H79.2914L98.727 53.3012V119.729H56.4014L66.23 104.308H18.169L5.51172 122.414V159.382H95.5072V170.449H141.313V159.382H163.278V119.729H141.313V19.5398Z" fill="white"/>
<path d="M141.312 183.484H95.5059V194.199H141.312V183.484Z" fill="white"/>
<path d="M261.042 150.531C256.346 150.647 251.696 149.59 247.511 147.455C243.982 145.675 240.946 143.051 238.673 139.816C236.341 136.117 234.665 132.042 233.72 127.772C232.508 123.026 231.702 118.185 231.308 113.303C230.961 108.662 230.783 103.127 230.774 96.6958C230.765 90.2651 230.939 84.8076 231.295 80.3235H186.428C186.002 85.5376 185.785 90.995 185.776 96.6958C185.645 109.623 187.006 122.522 189.83 135.137C192.268 145.912 196.526 156.192 202.422 165.535C208.152 174.479 216.283 181.63 225.886 186.17C235.793 190.984 247.524 193.391 261.081 193.391C274.638 193.391 286.369 190.984 296.276 186.17C305.88 181.631 314.011 174.48 319.74 165.535C323.104 160.254 325.917 154.641 328.134 148.785H271.613C268.223 149.995 264.642 150.587 261.042 150.531Z" fill="white"/>
<path d="M238.672 53.5749C240.951 50.3468 243.985 47.7246 247.509 45.9363C251.732 43.9106 256.356 42.8589 261.04 42.8589C265.724 42.8589 270.348 43.9106 274.571 45.9363C278.095 47.7246 281.129 50.3468 283.409 53.5749C285.737 57.2768 287.412 61.3508 288.362 65.6195C289.566 70.3672 290.373 75.207 290.774 80.0887C291.121 84.7292 291.299 90.2649 291.308 96.6956C291.317 103.126 291.139 108.662 290.774 113.303C290.374 118.184 289.567 123.024 288.362 127.772C288.114 128.762 287.841 129.701 287.567 130.626H333.216C335.332 119.455 336.354 108.104 336.267 96.7347C336.406 83.8088 335.054 70.91 332.239 58.2937C329.799 47.5193 325.54 37.2394 319.647 27.8954C313.917 18.9543 305.786 11.8075 296.183 7.27364C286.259 2.45059 274.527 0.0390625 260.988 0.0390625C247.449 0.0390625 235.717 2.45059 225.793 7.27364C216.191 11.8093 208.06 18.9557 202.329 27.8954C196.472 37.2335 192.244 47.4995 189.828 58.2546L189.594 59.3626H235.739C236.504 57.333 237.487 55.3924 238.672 53.5749Z" fill="white"/>
<path d="M66.6341 83.8169H19.8375L5.51172 104.308H53.5728L66.6341 83.8169Z" fill="white"/>
<path d="M150.632 170.449H104.826V183.484H150.632V170.449Z" fill="white"/>
<path d="M156.678 1.34277H105.514L92.8047 19.54H156.678V1.34277Z" fill="white"/>
<path d="M502.755 19.5398H438.869L393.936 83.8167H440.733L460.168 53.3012V119.729H417.843L427.671 104.308H379.61L366.953 122.414V159.382H456.949V170.449H502.755V159.382H524.719V119.729H502.755V19.5398Z" fill="white"/>
<path d="M502.755 183.484H456.949V194.199H502.755V183.484Z" fill="white"/>
<path d="M428.076 83.8169H381.279L366.953 104.308H415.014L428.076 83.8169Z" fill="white"/>
<path d="M512.074 170.449H466.268V183.484H512.074V170.449Z" fill="white"/>
<path d="M518.124 1.34277H466.961L454.238 19.54H518.124V1.34277Z" fill="white"/>
<path d="M221.349 80.1411C221.75 75.2595 222.556 70.4197 223.761 65.672C224.283 63.5451 224.945 61.455 225.742 59.415H179.597C178.058 66.3187 177.012 73.3234 176.469 80.3757H221.336C221.347 80.298 221.351 80.2196 221.349 80.1411Z" fill="white"/>
<path d="M342.004 130.626H296.303C295.375 133.877 293.974 136.974 292.145 139.816C289.171 143.892 285.07 147.009 280.348 148.785H336.829C338.536 144.334 339.943 139.775 341.04 135.137C341.379 133.651 341.705 132.152 342.004 130.626Z" fill="white"/>
<path d="M75.0028 57.5508H22.5488V59.3627H75.0028V57.5508Z" fill="white"/>
<path d="M75.0028 59.3628H22.5488V61.1747H75.0028V59.3628Z" fill="#070D20"/>
<path d="M17.9057 57.5508H16.0938V59.3627H17.9057V57.5508Z" fill="#C0283F"/>
<path d="M12.7572 57.5508H10.9453V59.3627H12.7572V57.5508Z" fill="#C0283F"/>
<path d="M6.53931 57.5508H-0.734375V59.3627H6.53931V57.5508Z" fill="#C0283F"/>
<path d="M413.2 114.541H360.746V116.353H413.2V114.541Z" fill="white"/>
<path d="M413.2 116.353H360.746V118.165H413.2V116.353Z" fill="#070D20"/>
<path d="M356.093 114.541H354.281V116.353H356.093V114.541Z" fill="#C0283F"/>
<path d="M350.945 114.541H349.133V116.353H350.945V114.541Z" fill="#C0283F"/>
<path d="M123.362 185.296H175.816V183.484H123.362V185.296Z" fill="white"/>
<path d="M123.362 187.108H175.816V185.297H123.362V187.108Z" fill="#070D20"/>
<path d="M180.469 185.296H182.281V183.484H180.469V185.296Z" fill="#87E3CE"/>
<path d="M185.616 185.296H187.428V183.484H185.616V185.296Z" fill="#87E3CE"/>
<path d="M191.822 185.296H199.096V183.484H191.822V185.296Z" fill="#87E3CE"/>
<path d="M288.728 14.3127L341.182 14.3127V12.5008L288.728 12.5008V14.3127Z" fill="white"/>
<path d="M479.263 59.3496L531.717 59.3496V57.5377L479.263 57.5377V59.3496Z" fill="white"/>
<path d="M489.183 141.524H541.637V139.712H489.183V141.524Z" fill="white"/>
<path d="M183.273 168.572H235.727V166.76H183.273V168.572Z" fill="white"/>
<path d="M349.525 67.6011H347.244V69.8822H349.525V67.6011Z" fill="#87E3CE"/>
<path d="M356.445 67.6011H354.164V69.8822H356.445V67.6011Z" fill="#87E3CE"/>
<path d="M440.719 8.16016H438.438V10.4413H440.719V8.16016Z" fill="#C0283F"/>
<path d="M538.316 57.3162H536.035V59.5973H538.316V57.3162Z" fill="white"/>
<path d="M545 57.3162H542.719V59.5973H545V57.3162Z" fill="white"/>
<path d="M447.654 8.16016H445.373V10.4413H447.654V8.16016Z" fill="#C0283F"/>
</g>
<defs>
<clipPath id="clip0_124_615">
<rect width="546" height="194" fill="white"/>
</clipPath>
</defs>
</svg>
