<svg width="12" height="12" viewBox="0 0 12 12" fill="none" xmlns="http://www.w3.org/2000/svg">
<path d="M9.182 8.68196L6 11.864L2.818 8.68196C2.18867 8.05262 1.76009 7.2508 1.58646 6.37789C1.41284 5.50497 1.50195 4.60018 1.84255 3.77791C2.18315 2.95565 2.75992 2.25285 3.49994 1.75838C4.23996 1.26392 5.10999 1 6 1C6.89002 1 7.76004 1.26392 8.50006 1.75838C9.24008 2.25285 9.81686 2.95565 10.1575 3.77791C10.4981 4.60018 10.5872 5.50497 10.4135 6.37789C10.2399 7.2508 9.81133 8.05262 9.182 8.68196ZM6 7.49996C6.53044 7.49996 7.03914 7.28925 7.41422 6.91417C7.78929 6.5391 8 6.03039 8 5.49996C8 4.96953 7.78929 4.46082 7.41422 4.08575C7.03914 3.71067 6.53044 3.49996 6 3.49996C5.46957 3.49996 4.96086 3.71067 4.58579 4.08575C4.21072 4.46082 4 4.96953 4 5.49996C4 6.03039 4.21072 6.5391 4.58579 6.91417C4.96086 7.28925 5.46957 7.49996 6 7.49996ZM6 6.49996C5.73479 6.49996 5.48043 6.3946 5.2929 6.20707C5.10536 6.01953 5 5.76518 5 5.49996C5 5.23474 5.10536 4.98039 5.2929 4.79285C5.48043 4.60532 5.73479 4.49996 6 4.49996C6.26522 4.49996 6.51957 4.60532 6.70711 4.79285C6.89464 4.98039 7 5.23474 7 5.49996C7 5.76518 6.89464 6.01953 6.70711 6.20707C6.51957 6.3946 6.26522 6.49996 6 6.49996Z" fill="#111111"/>
</svg>
