<svg width="24" height="25" viewBox="0 0 24 25" fill="none" xmlns="http://www.w3.org/2000/svg">
<path d="M5.99919 6H17.9993C18.1761 6 18.3457 6.07024 18.4707 6.19526C18.5957 6.32029 18.666 6.48986 18.666 6.66667V17.3334C18.666 17.5102 18.5957 17.6798 18.4707 17.8048C18.3457 17.9299 18.1761 18.0001 17.9993 18.0001H5.99919C5.82238 18.0001 5.65281 17.9299 5.52778 17.8048C5.40276 17.6798 5.33252 17.5102 5.33252 17.3334V6.66667C5.33252 6.48986 5.40276 6.32029 5.52778 6.19526C5.65281 6.07024 5.82238 6 5.99919 6ZM12.0392 11.7887L7.76454 8.15868L6.9012 9.17469L12.0479 13.5447L17.102 9.17136L16.2299 8.16268L12.0399 11.7887H12.0392Z" fill="white"/>
</svg>
