<svg width="174" height="60" viewBox="0 0 174 60" fill="none" xmlns="http://www.w3.org/2000/svg">
<path d="M23.274 29.5037L23.6357 27.3326C25.0663 25.7535 26.9343 24.3183 29.2396 23.0271C33.0056 20.0646 37.4848 16.4756 42.6773 12.26C44.3523 10.713 45.1533 9.24794 45.0805 7.86488L44.056 7.31234C43.4094 6.91036 41.0458 6.95009 36.965 7.43154C35.6201 7.61005 33.6485 8.10955 31.0502 8.93002C30.6238 9.06604 29.9594 9.2284 29.0572 9.4171C24.3177 10.4747 20.2621 12.2705 16.8902 14.8045C14.1835 16.8209 12.8771 18.2531 12.971 19.1011C12.9807 19.1888 13.045 19.2261 13.164 19.2129C13.2829 19.1998 13.4549 19.1215 13.6798 18.9782C13.5641 19.0206 13.3873 19.055 13.1494 19.0813C12.3961 19.1648 11.6463 19.0998 10.9002 18.8864C10.0287 18.6277 9.56545 18.2498 9.51041 17.7528C9.48775 17.5481 9.54277 17.32 9.67547 17.0685C11.3577 13.7744 15.9445 10.795 23.436 8.13039C24.2064 7.83791 25.775 7.32383 28.1419 6.58818C30.2045 6.00461 31.7238 5.4072 32.6996 4.79597C35.1321 4.28985 38.9029 3.54673 44.0122 2.56662C45.3101 2.68929 46.6065 2.79734 47.9012 2.89076C49.331 3.11722 50.4963 3.49138 51.397 4.01322L52.2564 5.25L51.3874 8.27648L48.9938 10.5838C48.2276 12.0006 45.9983 13.979 42.306 16.5189C39.4941 18.3102 36.6623 20.1037 33.8108 21.8993L32.6371 23.8052C33.193 24.8388 34.4424 25.248 36.3853 25.0329C36.9404 24.9714 37.5303 24.8617 38.155 24.7038C38.8954 24.5034 39.8867 24.3936 41.1288 24.3745C42.566 24.3041 43.5803 24.2214 44.1718 24.1263C44.7633 24.0312 45.6235 24.1876 46.7524 24.5954C48.0099 25.0777 48.8996 25.3196 49.4215 25.321C49.6619 25.6791 50.0224 26.2164 50.5031 26.9327C50.3566 27.4225 50.4792 27.9861 50.8709 28.6235L50.3976 29.7859C50.2519 29.9204 49.9189 30.3569 49.3986 31.0952C48.8751 31.8044 48.0336 32.9039 46.874 34.3938C46.3214 34.8398 45.4891 35.4795 44.3773 36.313C44.2438 36.9198 43.732 37.5536 42.8419 38.2145C42.3224 38.5977 41.6338 39.2659 40.7761 40.2192C39.5324 40.9489 38.6123 41.7019 38.016 42.4783C35.0868 45.0226 31.3188 48.1481 26.7122 51.8548C22.3482 54.8539 17.9855 56.5949 13.6239 57.0778C11.2449 57.3413 9.28137 57.1887 7.73336 56.6201C6.18534 56.0516 5.41577 55.2636 5.42464 54.2563C5.23366 53.9814 5.12199 53.6978 5.08961 53.4054C4.95687 52.2066 5.51195 51.42 6.75487 51.0455C9.39939 53.1798 12.3275 54.0691 15.5392 53.7135C21.6454 53.0374 29.2315 47.2396 38.2974 36.3203C39.4448 35.8084 40.1731 35.1358 40.4822 34.3024C40.5946 34.2308 40.8961 33.8718 41.3864 33.2255C41.6907 33.0735 42.2243 32.2744 42.9873 30.8284L41.7723 29.0982C39.1934 28.6438 36.6877 28.6697 34.2552 29.1758C33.667 29.3001 32.5717 29.377 30.9695 29.4064C30.7017 29.5249 30.1894 29.6112 29.4328 29.6654C27.6024 29.8088 26.1617 30.0276 25.1105 30.3215C24.7407 30.2441 24.3709 30.1666 24.0011 30.0892C23.6281 29.9825 23.3857 29.7874 23.274 29.5037Z" fill="white"/>
<path d="M72.585 33.0121C73.6102 32.4842 74.3082 32.0813 74.6788 31.8035C75.2711 31.3531 75.7744 30.8238 76.1887 30.2156C76.3246 29.9933 76.7401 29.5773 77.4352 28.9676C77.9118 28.5596 78.1242 28.1217 78.0724 27.6539C78.0141 27.1276 77.5687 26.9105 76.736 27.0027C75.5068 27.1388 74.1563 27.6287 72.6844 28.4725C70.68 29.5824 68.3885 32.0856 65.8097 35.9822C65.3622 36.6533 65.153 37.1204 65.1822 37.3836C65.1951 37.5006 65.2413 37.5547 65.3206 37.5459C65.5188 37.5239 65.8595 37.3382 66.3426 36.9887C66.875 36.7226 68.041 36.0163 69.8407 34.8699C71.6799 33.7191 72.5947 33.0998 72.585 33.0121ZM86.8947 42.0831C86.6091 42.7659 86.1074 43.3098 85.3897 43.7149C84.2188 44.3773 82.5911 45.4455 80.5067 46.9195C75.6321 49.2943 72.0252 50.6113 69.6858 50.8703C67.2671 51.1381 65.0268 50.661 62.9649 49.439C60.9395 48.1833 59.8264 46.649 59.6256 44.8361C59.3407 42.263 59.6397 40.0692 60.5224 38.2547C61.262 36.9593 62.3483 34.9891 63.7813 32.3442C64.4764 31.7344 65.4745 30.7803 66.7757 29.4819C67.7038 28.0768 69.836 26.6716 73.1723 25.2662C74.6701 24.6564 76.1723 24.2681 77.679 24.1012C80.4546 23.7939 82.2899 24.4194 83.1849 25.9779C83.4811 26.4778 83.3755 27.1555 82.8682 28.0108C82.059 29.4028 80.8238 30.7531 79.1625 32.0618C78.7952 32.3688 77.1954 33.5079 74.3633 35.4791C74.2969 35.6048 74.1545 35.7686 73.9361 35.9703C72.9408 36.4061 71.5579 37.3288 69.7874 38.7384C69.2347 39.1844 68.3778 39.7824 67.2166 40.5326C67.0183 40.5545 66.7044 40.6189 66.2747 40.7257C66.2747 40.7257 65.61 41.0657 64.2805 41.7457C64.792 46.3656 66.9494 48.4502 70.7526 47.9995C72.1007 47.8502 73.8826 47.2681 76.0981 46.2532C77.6987 45.4841 79.3191 44.7127 80.9593 43.9391C82.0671 43.4316 82.8277 43.0514 83.2412 42.7984C84.1111 42.3173 84.7002 41.8377 85.0085 41.3596C85.1412 41.1081 85.3265 40.9692 85.5644 40.9429C86.4367 40.8463 86.8801 41.2264 86.8947 42.0831Z" fill="white"/>
<path d="M134.111 44.0918L134.047 44.0546C133.925 44.0385 133.821 44.0056 133.735 43.9559L131.793 43.8158L131.328 43.4233L130.822 41.5702L130.959 37.9144L130.672 37.5021L131.14 36.8288L131.096 36.4341L131.341 35.3858L130.931 34.9428L131.239 34.4647L130.919 31.57L131.352 30.5896L130.695 27.3769C130.736 27.0172 130.723 26.7226 130.657 26.4931C130.227 25.5048 129.797 24.8864 129.368 24.6379L126.118 26.8182L126.137 26.9936C125.492 27.3314 124.938 27.7628 124.474 28.2877C124.441 28.3506 124.078 28.8791 123.386 29.8734L119.832 32.5756C119.723 32.6765 119.632 32.7605 119.559 32.8278C118.49 33.6861 117.904 34.195 117.801 34.3543C115.99 36.1236 114.719 37.5075 113.986 38.5062C112.765 39.4405 111.915 40.0971 111.435 40.4758L110.86 40.7171L108.482 40.4476L107.672 39.1165L108.887 36.4957L109.564 32.8245C109.478 32.7748 109.47 32.7017 109.54 32.6052L109.635 32.3727C109.668 32.3099 109.681 32.2492 109.675 32.1907C109.828 31.7594 109.909 31.41 109.92 31.1424C109.904 30.9962 109.931 30.6972 110.001 30.2454C110.042 29.5305 110.088 29.2147 110.137 29.298C110.354 28.3565 110.409 27.4032 110.302 26.4383C110.051 26.3477 109.807 26.3155 109.569 26.3419L108.462 27.2192C108.445 27.4283 108.341 27.573 108.149 27.6535L108.035 27.7105C107.843 27.7909 107.676 27.913 107.533 28.0768L107.365 28.1843C107.328 28.2179 107.292 28.2515 107.255 28.2852L103.293 32.187L102.636 33.3253C102.533 33.4846 102.383 33.5753 102.184 33.5973L101.196 34.4614L100.893 34.9834L99.5275 36.2445C99.4644 36.3995 99.345 36.5903 99.1694 36.817L95.9153 40.5959C95.6839 40.6807 95.4343 40.7824 95.1664 40.9008C94.9641 41.2488 94.6789 41.754 94.3108 42.4163C93.551 43.8916 92.5832 45.3011 91.4075 46.6448C90.9074 47.2033 90.409 47.7765 89.9121 48.3643C89.4549 48.9477 89.1843 49.5844 89.1001 50.2745C89.1212 51.1898 89.1423 52.105 89.1633 53.0202C89.1569 54.412 88.7968 55.1475 88.0831 55.2265C85.7437 55.4855 84.5101 54.675 84.3822 52.7948C84.332 51.6164 84.7438 49.8985 85.6177 47.6411C85.8038 47.1469 86.2743 46.5028 87.0293 45.7088C87.6054 45.1123 88.1815 44.5157 88.7577 43.9191C88.9834 43.4206 89.5337 42.5901 90.4084 41.4277L90.3489 41.4343C90.238 40.7954 90.5232 40.2902 91.2046 39.9188C91.2345 39.8267 91.311 39.611 91.434 39.2718C92.4171 38.3638 93.2328 37.7555 93.8809 37.4469C95.0615 36.8722 96.5002 35.3662 98.197 32.9288L98.2116 33.0604L100.223 31.1062L101.866 29.6367C102.055 29.527 102.205 29.4363 102.318 29.3647L107.373 24.4539C108.005 23.9992 108.858 23.1796 109.931 21.9952C110.215 21.6677 110.467 21.4031 110.685 21.2013C110.722 21.1677 110.925 21.0119 111.296 20.7341L113.22 20.1659L115.136 20.6197C115.264 21.0495 115.343 21.396 115.372 21.6591C115.411 22.01 115.341 22.2841 115.162 22.4815C115.297 22.6146 115.411 22.7352 115.503 22.8433L114.66 27.7317C114.221 28.8458 113.966 29.8064 113.895 30.6134L113.725 33.4293L114.498 33.3437L119.642 28.6895C119.669 28.5682 119.76 28.4841 119.915 28.4373L119.975 28.4307L120.585 27.9635L126.802 22.125L126.931 22.1996L129.482 20.2299L132.056 19.5454L132.689 19.8304C132.781 19.9386 132.966 19.9773 133.244 19.9466L134.406 21.1943L135.584 25.8588L135.246 26.6066C135.365 26.5935 135.467 26.6117 135.553 26.6614L135.485 34.7494L134.989 35.1595L135.508 42.0281L135.041 42.7014L135.57 43.1311L135.312 43.5149L134.111 44.0918Z" fill="white"/>
<path d="M172.99 41.4741C173.01 41.2943 173.133 41.1327 173.357 40.9894C173.582 40.8461 173.616 40.6056 173.458 40.2679C173.343 39.955 173.139 39.7408 172.845 39.6254C172.023 39.45 170.821 39.1095 169.24 38.6038C166.128 37.3205 164.253 35.9742 163.615 34.5648L162.594 32.4136C162.486 32.1592 162.485 31.7893 162.592 31.3039C162.696 30.7893 162.738 30.4442 162.718 30.2688C162.582 29.0407 162.862 27.3966 163.557 25.3366C163.402 25.0281 163.408 24.539 163.575 23.8694C163.742 23.1998 163.787 22.7063 163.712 22.3891C163.693 22.2137 163.703 21.9461 163.744 21.5864C163.824 21.2224 163.856 20.9673 163.84 20.8211C163.767 17.9877 163.493 16.4197 163.018 16.1171C161.932 15.3789 160.081 15.1547 157.464 15.4444C153.896 15.8396 151.133 17.1666 149.176 19.4257C148.987 19.5354 148.726 19.7123 148.391 19.9565C148.034 20.3513 147.476 20.931 146.718 21.6957C146.235 22.0452 145.574 22.6067 144.737 23.3802C144.234 23.9095 143.702 24.5456 143.142 25.2883C140.803 28.448 139.493 31.1237 139.214 33.3153C139.001 34.2861 138.809 35.2693 138.638 36.265C138.407 37.4448 138.336 38.4295 138.423 39.219C138.679 41.529 139.553 42.7197 141.046 42.7912C141.532 42.8262 142.092 42.8086 142.726 42.7384C145.105 42.4749 147.34 41.8131 149.43 40.7529C149.847 40.5292 150.378 40.0708 151.024 39.3777C151.706 38.651 152.196 38.1824 152.493 37.9718C153.314 37.4074 154.189 36.6149 155.12 35.5943C155.905 34.7082 156.691 33.8368 157.48 32.9799C157.84 32.6144 158.08 32.425 158.199 32.4119C158.199 32.4119 158.339 32.7664 158.618 33.4754C158.74 33.8468 158.981 34.3972 159.343 35.1267C159.607 35.3343 159.944 35.6669 160.356 36.1244C160.478 36.4958 160.716 37.017 161.071 37.688C161.461 37.9409 162.368 38.5212 163.793 39.429C165.218 40.3367 167.025 40.8914 169.215 41.0929C169.67 41.22 170.37 41.3793 171.315 41.5708C171.675 41.5605 172.233 41.5283 172.99 41.4741ZM158.21 25.4402L157.358 27.5325C157.285 27.5997 157.155 27.6882 156.966 27.7979C156.379 28.662 155.813 29.5239 155.266 30.3836C154.304 31.8516 153.601 32.5659 153.155 32.5265C150.709 36.1715 147.762 38.3773 144.315 39.1438C143.727 39.2681 143.362 39.0569 143.221 38.5101C143.173 38.0715 143.103 37.6205 143.011 37.1571C142.734 35.7375 142.889 34.2403 143.477 32.6657C143.63 32.2344 144.312 30.7825 145.524 28.3101C146.051 27.2749 147.288 25.7616 149.235 23.7701C149.235 23.7701 150.033 22.8233 151.63 20.9298C151.828 20.9079 152.459 20.4385 153.521 19.5217C153.762 19.5246 154.228 19.3842 154.919 19.1005C155.65 18.8124 156.154 18.653 156.432 18.6222C156.67 18.5959 156.835 18.6368 156.927 18.745C158.541 19.1878 159.407 19.9356 159.523 20.9882C159.617 21.8362 159.212 22.8874 158.307 24.1419C158.442 24.2749 158.41 24.7077 158.21 25.4402Z" fill="white"/>
</svg>
