<svg width="153" height="29" viewBox="0 0 153 29" fill="none" xmlns="http://www.w3.org/2000/svg">
<g clip-path="url(#clip0_398_4897)">
<path fill-rule="evenodd" clip-rule="evenodd" d="M107.043 21.9381C106.578 21.9439 106.117 21.8574 105.686 21.6835C105.255 21.5097 104.863 21.2521 104.533 20.9256C103.869 20.2616 103.42 19.2533 103.42 17.8922C103.42 16.5145 103.869 15.5103 104.533 14.8464C104.864 14.523 105.257 14.2685 105.688 14.0976C106.119 13.9267 106.58 13.8427 107.043 13.8505C107.989 13.8505 108.89 14.1824 109.554 14.8464C110.218 15.5103 110.662 16.5145 110.662 17.8922C110.662 19.2699 110.218 20.2741 109.554 20.938C109.222 21.2614 108.829 21.5158 108.398 21.6868C107.967 21.8577 107.507 21.9417 107.043 21.934V21.9381ZM107.043 9.44771C102.238 9.44771 98.5985 12.9832 98.5985 17.8922C98.5985 22.768 102.238 26.3367 107.043 26.3367C111.848 26.3367 115.488 22.768 115.488 17.8922C115.488 12.9832 111.848 9.44771 107.043 9.44771ZM67.0904 22.0543C66.6256 22.0601 66.1646 21.9735 65.7334 21.7997C65.3027 21.6259 64.9106 21.3683 64.5799 21.0417C63.9159 20.3778 63.4719 19.3736 63.4719 18.0125C63.4719 16.6348 63.9201 15.6265 64.5799 14.9667C64.9122 14.6421 65.3056 14.3866 65.7372 14.2149C66.1687 14.0433 66.6302 13.9589 67.0945 13.9666C68.0406 13.9666 68.9411 14.3028 69.6051 14.9626C70.269 15.6265 70.713 16.6349 70.713 18.0084C70.713 19.3861 70.2648 20.3944 69.6051 21.0542C69.2727 21.3788 68.8793 21.6343 68.4477 21.806C68.0162 21.9776 67.5547 22.062 67.0904 22.0543ZM67.0904 9.5639C62.2893 9.5639 58.65 13.1035 58.65 18.0084C58.65 22.8884 62.2893 26.4529 67.0904 26.4529C71.8957 26.4529 75.5349 22.8842 75.5349 18.0084C75.5349 13.1035 71.8957 9.56805 67.0945 9.56805L67.0904 9.5639ZM128.617 26.2827H133.41V16.7635C133.41 15.9751 133.659 15.2904 134.09 14.809C134.33 14.5486 134.623 14.3433 134.95 14.2072C135.277 14.0711 135.629 14.0075 135.983 14.0206C136.846 14.0206 137.435 14.311 137.813 14.7509C138.198 15.1991 138.394 15.8506 138.394 16.639V26.2827H143.157V16.7635C143.157 15.9958 143.406 15.3111 143.838 14.8173C144.071 14.5572 144.358 14.351 144.679 14.2134C145.001 14.0758 145.347 14.01 145.697 14.0206C146.581 14.0206 147.166 14.311 147.539 14.7509C147.921 15.1991 148.112 15.8506 148.112 16.639V26.2827H152.78V15.7842C152.78 13.6388 152.075 12.0744 150.959 11.0536C149.851 10.037 148.373 9.58465 146.892 9.58465C145.834 9.58465 144.867 9.76719 144 10.2029C143.257 10.5764 142.605 11.1242 142.033 11.8877C141.107 10.3814 139.418 9.58465 137.427 9.58465C135.966 9.58465 134.285 10.1656 133.223 11.286V9.97472H128.617V26.2827ZM126.812 9.98717V14.8712L126.438 14.7965C125.994 14.7094 125.609 14.6762 125.252 14.6762C124.235 14.6762 123.33 14.9252 122.683 15.531C122.04 16.1327 121.596 17.1328 121.596 18.7429V26.2827H116.815V9.97472H121.471V11.5515C122.621 10.1656 124.409 9.89168 125.534 9.89168C125.891 9.89168 126.218 9.92903 126.53 9.95808L126.812 9.98717ZM40.624 18.4234H45.2965L45.3505 18.4773C45.3837 18.5105 45.4086 18.5603 45.4127 18.6143C45.433 19.0529 45.5401 19.4831 45.7281 19.8799C45.9165 20.2768 46.1816 20.6322 46.5082 20.9256C47.1232 21.4275 47.8975 21.6925 48.6909 21.6725C49.1304 21.6872 49.5677 21.6061 49.9723 21.4349C50.3773 21.2636 50.74 21.0063 51.0355 20.6807C51.6098 19.9842 51.9094 19.1015 51.8778 18.1993V4.53868H56.9321V18.3404C56.9321 22.7597 53.5501 26.4529 48.7241 26.4529C46.3173 26.4529 44.2923 25.652 42.8731 24.2619C41.4871 22.905 40.6614 20.9671 40.624 18.6101V18.4234ZM97.9222 6.75045L98.1877 6.82929V3.1278L98.0632 3.07386C97.7952 2.96721 97.5151 2.89336 97.2292 2.85393C96.8764 2.79583 96.4615 2.75848 96.0382 2.75848C94.3908 2.75848 92.5401 3.30624 91.5815 4.2897C90.623 5.26903 90.0918 6.66746 90.0918 8.34391V9.12404H87.685V13.3733H90.0918V26.2827H94.9261V13.3733H98.1877V9.12404H94.9261V8.402C94.9261 7.65092 95.1875 7.21521 95.5237 6.96623C95.8826 6.72194 96.31 6.59837 96.7437 6.61351C97.3661 6.61351 97.7313 6.69651 97.9222 6.75045ZM85.9546 22.4693L86.2036 22.3904V26.1043L86.0874 26.1624C85.9131 26.2454 85.6309 26.3243 85.3031 26.3824C84.9711 26.4363 84.5852 26.4736 84.1827 26.4736C82.6391 26.4736 80.9045 25.9259 80.004 24.9383C79.1036 23.9548 78.6056 22.5522 78.6056 20.8716V13.3733H76.3441V9.14479H78.6056V4.56357H83.1412V9.14894H86.2036V13.3815H83.1412V20.8135C83.1412 21.5687 83.3901 22.0045 83.7055 22.2576C84.0292 22.519 84.4566 22.6103 84.8508 22.6103C85.4359 22.6103 85.7762 22.5273 85.9546 22.4734V22.4693Z" fill="white"/>
<path d="M7.3071 26.9425C7.82166 27.4405 7.45649 28.2995 6.72616 28.2995H2.12836C1.69985 28.305 1.28663 28.1404 0.979346 27.8417C0.672065 27.5429 0.495815 27.1345 0.489258 26.706V22.2576C0.489258 21.5439 1.37313 21.1912 1.89183 21.6933L7.3071 26.9425Z" fill="white"/>
<path d="M14.4824 27.2871C14.1599 26.967 13.904 26.5862 13.7294 26.1667C13.5548 25.7472 13.4648 25.2974 13.4648 24.843C13.4648 24.3886 13.5548 23.9387 13.7294 23.5192C13.904 23.0998 14.1599 22.719 14.4824 22.3988L19.3872 17.5272C20.0417 16.8779 20.9262 16.5137 21.848 16.5137C22.7698 16.5137 23.6543 16.8779 24.3087 17.5272C24.6312 17.8473 24.8871 18.2281 25.0617 18.6476C25.2364 19.067 25.3262 19.5169 25.3262 19.9713C25.3262 20.4257 25.2364 20.8756 25.0617 21.295C24.8871 21.7145 24.6312 22.0953 24.3087 22.4154L19.4038 27.2871C18.7494 27.9363 17.8649 28.3006 16.9431 28.3006C16.0213 28.3006 15.1368 27.9363 14.4824 27.2871Z" fill="white"/>
<path d="M1.52632 15.0413C1.20388 14.7212 0.947969 14.3404 0.773332 13.921C0.598696 13.5015 0.508789 13.0516 0.508789 12.5972C0.508789 12.1428 0.598696 11.6929 0.773332 11.2735C0.947969 10.854 1.20388 10.4732 1.52632 10.1531L9.77996 1.94924C10.4344 1.30002 11.3189 0.93573 12.2407 0.93573C13.1625 0.93573 14.047 1.30002 14.7014 1.94924C15.0239 2.26938 15.2798 2.65016 15.4544 3.06963C15.629 3.48911 15.719 3.939 15.719 4.39338C15.719 4.84776 15.629 5.29765 15.4544 5.71714C15.2798 6.13658 15.0239 6.51735 14.7014 6.8375L6.44366 15.0413C5.78938 15.6893 4.9058 16.0528 3.98498 16.0528C3.06417 16.0528 2.18058 15.6893 1.52632 15.0413Z" fill="white"/>
<path d="M8.27437 20.8925C7.9519 20.5724 7.69599 20.1916 7.52138 19.7721C7.34672 19.3526 7.25684 18.9027 7.25684 18.4484C7.25684 17.994 7.34672 17.5441 7.52138 17.1246C7.69599 16.7052 7.9519 16.3243 8.27437 16.0042L19.4244 4.92471C20.0788 4.27549 20.9633 3.91119 21.8852 3.91119C22.807 3.91119 23.6915 4.27549 24.3459 4.92471C24.6683 5.24483 24.9242 5.62564 25.0989 6.04508C25.2735 6.46457 25.3634 6.91447 25.3634 7.36886C25.3634 7.8232 25.2735 8.27311 25.0989 8.69259C24.9242 9.11208 24.6683 9.49285 24.3459 9.81299L13.1958 20.8925C12.5414 21.5417 11.6569 21.906 10.7351 21.906C9.81326 21.906 8.92876 21.5417 8.27437 20.8925Z" fill="white"/>
</g>
<defs>
<clipPath id="clip0_398_4897">
<rect width="152.292" height="27.3876" fill="white" transform="translate(0.489258 0.911987)"/>
</clipPath>
</defs>
</svg>
