<svg width="142" height="31" viewBox="0 0 142 31" fill="none" xmlns="http://www.w3.org/2000/svg">
<g clip-path="url(#clip0_398_4883)">
<path d="M57.5835 11.9496H62.2133C61.441 7.0271 57.179 3.59845 51.6326 3.59845C45.07 3.59845 40.1455 8.42336 40.1455 16.5042C40.1455 24.4406 44.8485 29.3631 51.7668 29.3631C57.9757 29.3631 62.4206 25.3694 62.4206 18.9044V15.8924H52.2444V19.443H58.0245C57.9513 23.02 55.5633 25.2841 51.7911 25.2841C47.5922 25.2841 44.7143 22.1379 44.7143 16.4554C44.7143 10.8094 47.641 7.67544 51.6936 7.67544C54.7178 7.67544 56.7868 9.29119 57.5835 11.9496Z" fill="white"/>
<path d="M65.4809 29.0196H69.9135V10.22H65.4809V29.0196ZM67.7165 7.23233C69.1249 7.23233 70.2753 6.15313 70.2753 4.83207C70.2753 3.51101 69.1249 2.41962 67.7165 2.41962C66.308 2.41962 65.1455 3.49679 65.1455 4.83207C65.1455 6.16736 66.2877 7.23233 67.7084 7.23233H67.7165Z" fill="white"/>
<path d="M83.1874 10.22H79.4762V5.70398H75.0435V10.22H72.375V13.6486H75.0435V24.1073C75.0191 27.6457 77.5922 29.3915 80.9212 29.2879C81.808 29.2704 82.6874 29.1216 83.5308 28.8468L82.7829 25.3796C82.3594 25.4895 81.9238 25.5476 81.4862 25.5523C80.3705 25.5523 79.4762 25.1601 79.4762 23.3716V13.6385H83.1874V10.22Z" fill="white"/>
<path d="M86.6182 29.0195H102.207V25.2108H91.1626V3.93976H86.6182V29.0195Z" fill="white"/>
<path d="M110.698 29.3997C113.649 29.3997 115.411 28.0156 116.22 26.4364H116.367V29.0196H120.635V16.4309C120.635 11.4597 116.582 9.96588 112.993 9.96588C109.038 9.96588 106.001 11.728 105.022 15.1566L109.162 15.746C109.601 14.4595 110.851 13.358 113.023 13.358C115.082 13.358 116.208 14.4107 116.208 16.2602V16.3334C116.208 17.6057 114.873 17.6687 111.554 18.0223C107.906 18.4146 104.416 19.5039 104.416 23.7415C104.404 27.4404 107.109 29.3997 110.698 29.3997ZM112.155 26.1478C110.306 26.1478 108.983 25.3024 108.983 23.6744C108.983 21.9713 110.464 21.2619 112.438 20.9794C113.602 20.8209 115.93 20.5262 116.503 20.0628V22.2781C116.515 24.3654 114.824 26.1417 112.155 26.1417V26.1478Z" fill="white"/>
<path d="M123.897 29.0195H128.257V26.0563H128.513C129.212 27.4282 130.669 29.3508 133.903 29.3508C138.336 29.3508 141.655 25.8348 141.655 19.64C141.655 13.3701 138.238 9.96582 133.891 9.96582C130.572 9.96582 129.188 11.9616 128.513 13.3213H128.326V3.93976H123.897V29.0195ZM128.245 19.6156C128.245 15.9573 129.812 13.6018 132.665 13.6018C135.616 13.6018 137.136 16.1118 137.136 19.6156C137.136 23.1195 135.594 25.7128 132.665 25.7128C129.836 25.7128 128.245 23.2638 128.245 19.6156Z" fill="white"/>
<path d="M31.7883 12.5308L31.7456 12.417L27.4369 1.17785C27.3497 0.957166 27.1944 0.76996 26.9939 0.643329C26.8441 0.547475 26.674 0.488034 26.4971 0.469768C26.3203 0.451502 26.1417 0.474921 25.9754 0.538146C25.8094 0.601374 25.6602 0.702649 25.5403 0.833856C25.4204 0.965062 25.3328 1.12255 25.2846 1.2937L22.3762 10.1976H10.5985L7.69012 1.2937C7.6416 1.12281 7.55384 0.965614 7.43381 0.834659C7.31378 0.703703 7.1648 0.602608 6.99875 0.539433C6.83273 0.476258 6.65424 0.452752 6.4775 0.470791C6.30079 0.48883 6.13072 0.547912 5.98087 0.643329C5.78021 0.76996 5.62502 0.957166 5.53781 1.17785L1.23116 12.419L1.18645 12.5308C0.566417 14.1513 0.490032 15.9294 0.968808 17.597C1.44758 19.2647 2.45556 20.7315 3.84077 21.7762L3.85703 21.7884L3.8936 21.8168L10.4481 26.7291L13.6999 29.1863L15.6754 30.6801C15.9072 30.8553 16.1898 30.95 16.4802 30.95C16.7707 30.95 17.0533 30.8553 17.2851 30.6801L19.2606 29.1863L22.5124 26.7291L29.1136 21.7884L29.1319 21.7741C30.517 20.7299 31.5251 19.2635 32.0043 17.5963C32.4834 15.929 32.4075 14.1512 31.7883 12.5308Z" fill="white"/>
<path d="M31.788 12.5307L31.7453 12.4169C29.6461 12.8477 27.6679 13.7375 25.953 15.0225L16.4922 22.1765L22.5162 26.7291L29.1174 21.7883L29.1357 21.7741C30.5202 20.7292 31.5275 19.2626 32.0059 17.5954C32.4841 15.9282 32.4077 14.1507 31.788 12.5307Z" fill="white"/>
<path d="M10.4473 26.7291L13.6991 29.1863L15.6746 30.6801C15.9064 30.8553 16.1889 30.95 16.4794 30.95C16.7699 30.95 17.0525 30.8553 17.2843 30.6801L19.2597 29.1863L22.5116 26.7291L16.4876 22.1765L10.4473 26.7291Z" fill="white"/>
<path d="M7.02146 15.0225C5.30705 13.7382 3.32969 12.8491 1.23116 12.419L1.18645 12.5308C0.566417 14.1512 0.490032 15.9293 0.968808 17.597C1.44758 19.2646 2.45556 20.7315 3.84077 21.7761L3.85703 21.7883L3.8936 21.8168L10.4481 26.7291L16.4762 22.1765L7.02146 15.0225Z" fill="white"/>
</g>
<defs>
<clipPath id="clip0_398_4883">
<rect width="141.252" height="30.6892" fill="white" transform="translate(0.489258 0.261169)"/>
</clipPath>
</defs>
</svg>
