<svg width="138" height="37" viewBox="0 0 138 37" fill="none" xmlns="http://www.w3.org/2000/svg">
<path d="M36.1475 27.7581V0.919067H40.3173V11.5001C41.6305 9.54425 43.6001 8.56598 46.2258 8.56528C48.4655 8.56528 50.1968 9.22817 51.4199 10.5539C52.6429 11.8797 53.2546 13.7269 53.2547 16.0956V27.7581H49.0847V16.6749C49.0847 13.6115 47.7202 12.0797 44.9911 12.0793C43.6262 12.0793 42.5064 12.4912 41.6315 13.3151C40.7568 14.1389 40.3188 15.2975 40.3181 16.7907V27.7578L36.1475 27.7581Z" fill="white"/>
<path d="M72.9615 25.4417C71.1079 27.2953 68.7782 28.222 65.972 28.222C63.1659 28.222 60.8296 27.2953 58.9628 25.4417C57.0962 23.5879 56.1629 21.2319 56.1631 18.3735C56.1632 15.5154 57.0965 13.1664 58.9628 11.3265C60.8293 9.48611 63.1656 8.56574 65.972 8.56531C68.7783 8.56489 71.1082 9.48528 72.9615 11.3265C74.8154 13.1675 75.7423 15.5165 75.7422 18.3735C75.742 21.2307 74.8151 23.5867 72.9615 25.4417ZM62.0138 23.0857C63.0042 24.2442 64.3237 24.8235 65.972 24.8235C67.6204 24.8235 68.9398 24.2442 69.9302 23.0857C70.9209 21.9272 71.4164 20.3566 71.4169 18.3735C71.4169 16.4173 70.915 14.8597 69.911 13.701C68.907 12.5423 67.594 11.9631 65.972 11.9632C64.3241 11.9632 63.0046 12.536 62.0138 13.6816C61.0228 14.8273 60.5272 16.391 60.5269 18.3728C60.5269 20.3566 61.0225 21.9275 62.0138 23.0857Z" fill="white"/>
<path d="M85.3952 28.2215C81.5589 28.2215 79.6407 26.1618 79.6407 22.0426V12.5429H76.7451V9.02885H79.7572L80.7228 3.50763H83.8503V9.02885H91.3033V12.5429H83.8506V21.9269C83.8506 23.652 84.4813 24.5145 85.7428 24.5144C86.9267 24.5144 87.9951 23.433 88.9479 21.2704L92.192 22.9311C90.5954 26.4584 88.3298 28.2218 85.3952 28.2215Z" fill="white"/>
<path d="M93.5329 36.3311C91.6793 36.3311 90.1474 35.8162 88.9375 34.7863L90.4823 31.5039C91.2291 32.3788 92.04 32.8166 92.9152 32.8175C94.0736 32.8175 94.6527 32.071 94.6527 30.5778V9.0288H98.8228V30.654C98.8228 32.6621 98.3272 34.1103 97.3359 34.9983C96.3448 35.8865 95.0771 36.3307 93.5329 36.3311ZM96.7381 5.86194C96.0526 5.8852 95.3858 5.63523 94.8845 5.16702C94.6433 4.93975 94.4533 4.66386 94.3269 4.35762C94.2004 4.05139 94.1405 3.72177 94.151 3.39062C94.1416 3.05675 94.2022 2.72462 94.3285 2.41543C94.4548 2.10623 94.6442 1.82676 94.8845 1.59483C95.3886 1.13525 96.0462 0.880493 96.7285 0.880493C97.4106 0.880493 98.0684 1.13525 98.5725 1.59483C98.8179 1.82388 99.012 2.10237 99.1418 2.41193C99.2715 2.72147 99.3343 3.05505 99.3256 3.39062C99.3316 3.72012 99.2677 4.04713 99.1378 4.35003C99.008 4.65292 98.8154 4.92479 98.5725 5.14762C98.3288 5.38158 98.0414 5.56511 97.7266 5.68768C97.4118 5.81027 97.0759 5.86949 96.7381 5.86194Z" fill="white"/>
<path d="M109.181 28.2217C107.044 28.2217 105.312 27.6875 103.987 26.6192C102.661 25.5508 101.998 24.116 101.998 22.3143C101.998 20.6668 102.687 19.2699 104.064 18.1235C105.441 16.9772 107.173 16.4044 109.258 16.4052C111.395 16.4052 113.197 17.0874 114.664 18.452V16.1733C114.664 14.835 114.323 13.7988 113.641 13.0646C112.958 12.3304 111.987 11.9636 110.726 11.964C108.177 11.964 106.593 13.264 105.975 15.8641L102.152 15.0533C102.667 13.0453 103.684 11.462 105.203 10.3035C106.723 9.14494 108.615 8.56567 110.88 8.56567C113.352 8.56567 115.302 9.21576 116.73 10.516C118.159 11.8161 118.873 13.7147 118.874 16.2117V27.7584H114.819V25.4024C113.454 27.2821 111.575 28.222 109.181 28.2217ZM109.952 25.1324C111.806 25.1324 113.377 24.2056 114.664 22.3521V21.7722C113.377 20.2276 111.806 19.4552 109.952 19.4554C108.871 19.4554 107.995 19.7195 107.325 20.2477C107.008 20.4811 106.752 20.7869 106.577 21.1396C106.402 21.4922 106.315 21.8815 106.321 22.2749C106.311 22.6725 106.395 23.0669 106.566 23.426C106.737 23.7849 106.991 24.0985 107.306 24.3409C107.964 24.8687 108.846 25.1325 109.953 25.1324H109.952Z" fill="white"/>
<path d="M122.931 27.7581V9.02866H126.985V12.2725C128.015 9.90407 129.791 8.7198 132.315 8.71967C133.807 8.71967 135.043 9.2088 136.022 10.1871C137.001 11.1653 137.49 12.4783 137.489 14.126C137.479 15.1121 137.309 16.0902 136.987 17.0223L133.164 16.6362C133.242 16.1244 133.294 15.6088 133.318 15.0916C133.318 13.1607 132.52 12.1952 130.924 12.1951C129.843 12.1951 128.935 12.7679 128.202 13.9135C127.468 15.0592 127.101 16.5718 127.101 18.4514V27.7581H122.931Z" fill="white"/>
<path d="M10.1027 11.8944C13.2106 10.1678 17.467 7.80261 17.467 0.919067H12.313C12.313 4.77043 10.438 5.81209 7.59968 7.38894C4.49183 9.11614 0.235352 11.4803 0.235352 18.3646H5.38941C5.38941 14.5129 7.26442 13.4712 10.1027 11.8944Z" fill="white"/>
<path d="M19.0239 10.3126C19.0239 14.1641 17.1489 15.2058 14.3106 16.7824C11.2036 18.509 6.94629 20.8739 6.94629 27.7579H12.1001C12.1001 23.9064 13.9752 22.8647 16.8134 21.2879C19.9213 19.5613 24.1775 17.1968 24.1775 10.3126H19.0239Z" fill="white"/>
</svg>
