<svg width="144" height="26" viewBox="0 0 144 26" fill="none" xmlns="http://www.w3.org/2000/svg">
<g clip-path="url(#clip0_398_4886)">
<path fill-rule="evenodd" clip-rule="evenodd" d="M50.3568 16.0559C50.9505 14.7271 52.1948 13.8224 53.8354 13.8224C55.476 13.8224 56.6922 14.5857 57.2012 16.0559H50.3568ZM61.1042 17.7523C61.1042 13.6809 58.1343 10.4296 53.8072 10.4296C49.7344 10.4296 46.4536 13.7091 46.4536 17.7807C46.4536 21.852 49.5084 25.1316 53.9205 25.1316C56.9761 25.1316 59.1739 23.6582 60.4105 21.5459L57.3372 19.7139C56.6851 20.9645 55.4336 21.7389 53.9487 21.7389C51.9122 21.7389 50.6397 20.7209 50.187 19.166H61.1042V17.7523ZM139.988 17.7523C139.988 15.6602 138.461 13.9637 136.368 13.9637C134.219 13.9637 132.578 15.5753 132.578 17.7523C132.578 19.9292 134.219 21.5693 136.368 21.5693C138.461 21.5693 139.988 19.8446 139.988 17.7523ZM128.788 17.7807C128.788 12.7766 132.465 10.4296 135.66 10.4296C137.499 10.4296 138.942 11.1082 139.875 12.0976V4.20957H143.75V24.8488H139.875V23.2658C138.942 24.3685 137.443 25.1316 135.604 25.1316C132.606 25.1316 128.788 22.7566 128.788 17.7807ZM125.942 8.56079C127.222 8.56079 128.26 7.52346 128.26 6.24374C128.26 4.96402 127.222 3.9267 125.942 3.9267C124.662 3.9267 123.624 4.96402 123.624 6.24374C123.624 7.52346 124.662 8.56079 125.942 8.56079ZM124.005 10.7125H127.879V24.8488H124.005V14.4729L122.598 14.4726L124.005 10.7125ZM113.683 10.7125H117.529V13.0309C118.236 11.5607 119.509 10.7125 121.432 10.7125H122.988L121.583 14.4726H120.527C118.462 14.4726 117.557 15.5471 117.557 18.1765V24.8488H113.683V10.7125ZM91.8846 14.5293C91.8846 8.64833 96.325 3.9267 102.434 3.9267C105.49 3.9267 108.059 5.02666 109.92 6.77951C110.677 7.49273 111.317 8.31429 111.824 9.21387L108.374 11.306C107.101 8.95922 105.149 7.7435 102.462 7.7435C98.7007 7.7435 95.7875 10.8255 95.7875 14.5293C95.7875 18.3179 98.6443 21.3146 102.604 21.3146C105.602 21.3146 107.723 19.6184 108.458 16.9889H101.981V13.2287H112.701V14.8119C112.701 20.3537 108.741 25.1316 102.604 25.1316C96.1554 25.1316 91.8846 20.2406 91.8846 14.5293ZM87.2138 17.7523C87.2138 15.6602 85.6867 13.9637 83.5939 13.9637C81.4444 13.9637 79.8038 15.5753 79.8038 17.7523C79.8038 19.9292 81.4444 21.5693 83.5939 21.5693C85.6867 21.5693 87.2138 19.8446 87.2138 17.7523ZM76.0139 17.7807C76.0139 12.7766 79.6906 10.4296 82.8866 10.4296C84.7249 10.4296 86.1674 11.1082 87.1009 12.0976V4.20957H90.9756V24.8488H87.1009V23.2658C86.1674 24.3685 84.6685 25.1316 82.8302 25.1316C79.8322 25.1316 76.0139 22.7566 76.0139 17.7807ZM62.01 10.7125H65.8567V12.2957C66.7616 11.1364 68.1477 10.4296 69.7597 10.4296C73.0969 10.4296 75.1051 12.5784 75.1051 16.2255V24.8488H71.1737V16.7344C71.1737 14.8402 70.2969 13.7375 68.572 13.7375C67.101 13.7375 65.8849 14.7553 65.8849 17.1302V24.8488H62.01V10.7125ZM30.373 21.4279L33.9653 18.6004C34.9832 20.3537 36.5955 21.3713 38.4335 21.3713C40.442 21.3713 41.5168 20.0709 41.5168 18.6569C41.5168 16.9607 39.4517 16.4237 37.2458 15.7448C34.4743 14.8968 31.3914 13.8224 31.3914 9.86406C31.3914 6.55618 34.2765 3.9267 38.264 3.9267C41.6299 3.9267 43.553 5.19903 45.2219 6.92387L41.9691 9.38352C41.1208 8.11139 39.9046 7.43261 38.2922 7.43261C36.4539 7.43261 35.4643 8.42228 35.4643 9.72281C35.4643 11.306 37.4439 11.8436 39.6499 12.5784C42.4502 13.483 45.6177 14.7271 45.6177 18.6855C45.6177 21.965 43.0155 25.1316 38.462 25.1316C34.729 25.1316 32.2401 23.5486 30.373 21.4279Z" fill="white"/>
<path fill-rule="evenodd" clip-rule="evenodd" d="M9.22168 24.8487H17.4799V16.5933H9.22168V24.8487Z" fill="white"/>
<path fill-rule="evenodd" clip-rule="evenodd" d="M0.962891 16.5937H9.2211V8.3382H0.962891V16.5937Z" fill="white"/>
<path fill-rule="evenodd" clip-rule="evenodd" d="M0.962891 24.8487H9.22109V16.5933H0.962891V24.8487Z" fill="white"/>
<path fill-rule="evenodd" clip-rule="evenodd" d="M17.4805 16.5937H25.7387V8.3382H17.4805V16.5937Z" fill="white"/>
<path fill-rule="evenodd" clip-rule="evenodd" d="M9.22168 8.33839H17.4799V0.0830078H9.22168V8.33839Z" fill="white"/>
<path fill-rule="evenodd" clip-rule="evenodd" d="M9.22168 16.5936H17.4799V8.3382H9.22168V16.5936Z" fill="white"/>
<path fill-rule="evenodd" clip-rule="evenodd" d="M17.4805 8.33839H25.7387V0.0830078H17.4805V8.33839Z" fill="white"/>
</g>
<defs>
<clipPath id="clip0_398_4886">
<rect width="142.906" height="25.116" fill="white" transform="translate(0.921875 0.0477295)"/>
</clipPath>
</defs>
</svg>
