<svg width="32" height="33" viewBox="0 0 32 33" fill="none" xmlns="http://www.w3.org/2000/svg">
<g clip-path="url(#clip0_179_2517)">
<path d="M24.4853 24.0638L16 32.5492L7.51467 24.0638C5.83646 22.3856 4.69358 20.2474 4.23057 17.9196C3.76756 15.5919 4.00521 13.1791 4.91346 10.9864C5.82172 8.79367 7.35979 6.91954 9.33318 5.60097C11.3066 4.2824 13.6266 3.57861 16 3.57861C18.3734 3.57861 20.6934 4.2824 22.6668 5.60097C24.6402 6.91954 26.1783 8.79367 27.0865 10.9864C27.9948 13.1791 28.2324 15.5919 27.7694 17.9196C27.3064 20.2474 26.1636 22.3856 24.4853 24.0638V24.0638ZM16 20.9118C17.4145 20.9118 18.771 20.3499 19.7712 19.3497C20.7714 18.3496 21.3333 16.993 21.3333 15.5785C21.3333 14.164 20.7714 12.8075 19.7712 11.8073C18.771 10.8071 17.4145 10.2452 16 10.2452C14.5855 10.2452 13.229 10.8071 12.2288 11.8073C11.2286 12.8075 10.6667 14.164 10.6667 15.5785C10.6667 16.993 11.2286 18.3496 12.2288 19.3497C13.229 20.3499 14.5855 20.9118 16 20.9118V20.9118ZM16 18.2452C15.2928 18.2452 14.6145 17.9642 14.1144 17.4641C13.6143 16.964 13.3333 16.2858 13.3333 15.5785C13.3333 14.8713 13.6143 14.193 14.1144 13.6929C14.6145 13.1928 15.2928 12.9118 16 12.9118C16.7072 12.9118 17.3855 13.1928 17.8856 13.6929C18.3857 14.193 18.6667 14.8713 18.6667 15.5785C18.6667 16.2858 18.3857 16.964 17.8856 17.4641C17.3855 17.9642 16.7072 18.2452 16 18.2452Z" fill="#E05050"/>
</g>
<defs>
<clipPath id="clip0_179_2517">
<rect width="32" height="32" fill="white" transform="translate(0 0.911865)"/>
</clipPath>
</defs>
</svg>
