<svg width="26" height="26" viewBox="0 0 26 26" fill="none" xmlns="http://www.w3.org/2000/svg">
<path d="M6.37623 12.1102C10.4994 10.3039 13.2488 9.11299 14.6245 8.53763C18.5523 6.89484 19.3685 6.60947 19.9005 6.59994C20.0175 6.59797 20.2791 6.62713 20.4485 6.7654C20.5916 6.88215 20.631 7.03986 20.6498 7.15055C20.6687 7.26124 20.6921 7.5134 20.6735 7.71043C20.4606 9.95928 19.5396 15.4167 19.0711 17.9354C18.8728 19.0012 18.4824 19.3585 18.1045 19.3935C17.2831 19.4695 16.6594 18.8477 15.8639 18.3233C14.6191 17.5028 13.9159 16.992 12.7075 16.1913C11.3111 15.266 12.2164 14.7574 13.0122 13.9263C13.2204 13.7088 16.8393 10.3989 16.9094 10.0986C16.9181 10.061 16.9263 9.92107 16.8436 9.84715C16.7609 9.77324 16.6388 9.79851 16.5507 9.81862C16.4259 9.84711 14.4372 11.1688 10.5848 13.7837C10.0204 14.1735 9.50911 14.3634 9.05103 14.3534C8.54602 14.3424 7.5746 14.0663 6.85245 13.8303C5.96671 13.5407 5.26273 13.3877 5.32403 12.896C5.35596 12.6399 5.7067 12.378 6.37623 12.1102Z" fill="white"/>
</svg>
