<svg width="32" height="32" viewBox="0 0 32 32" fill="none" xmlns="http://www.w3.org/2000/svg">
<path fill-rule="evenodd" clip-rule="evenodd" d="M25.8439 10.8579C25.9922 10.3634 25.8439 10 25.138 10H22.8042C22.2107 10 21.9373 10.3139 21.7889 10.6602C21.7889 10.6602 20.602 13.553 18.9206 15.4321C18.3766 15.9761 18.1294 16.1489 17.8327 16.1489C17.6843 16.1489 17.4696 15.9761 17.4696 15.4816V10.8579C17.4696 10.2644 17.2974 10 16.8028 10H13.1352C12.7645 10 12.5414 10.2754 12.5414 10.5365C12.5414 11.0991 13.382 11.2288 13.4686 12.8112V16.2481C13.4686 17.0016 13.3326 17.1383 13.0359 17.1383C12.2447 17.1383 10.3202 14.2323 9.17864 10.9074C8.95492 10.2611 8.73054 10 8.13406 10H5.80019C5.13336 10 5 10.3139 5 10.6602C5 11.2783 5.79135 14.3443 8.68419 18.3993C10.613 21.1683 13.3299 22.6696 15.8025 22.6696C17.2862 22.6696 17.4696 22.3362 17.4696 21.7619V19.6689C17.4696 19.0021 17.6101 18.8691 18.0797 18.8691C18.4261 18.8691 19.0194 19.0421 20.4043 20.3773C21.9866 21.9595 22.2474 22.6696 23.1376 22.6696H25.4714C26.1383 22.6696 26.4717 22.3362 26.2793 21.6782C26.0689 21.0224 25.3134 20.0712 24.3108 18.9433C23.7669 18.3003 22.9509 17.6079 22.7038 17.2619C22.3576 16.8168 22.4564 16.619 22.7038 16.2236C22.7038 16.2236 25.5471 12.218 25.8439 10.858V10.8579Z" fill="white"/>
</svg>
