<?xml version="1.0" encoding="utf-8"?><svg width="88" height="84" viewBox="0 0 88 84" xmlns="http://www.w3.org/2000/svg" xmlns:xlink="http://www.w3.org/1999/xlink"><svg width="20" height="20" fill="none" viewBox="0 0 20 20" id="arrow" y="64" xmlns="http://www.w3.org/2000/svg"><path d="M12.607 10.625H5v-1.25h7.607L9.255 6.023l.884-.884L15 10l-4.861 4.861-.884-.883 3.352-3.353z" fill="#fff"/><rect x=".625" y=".625" width="18.75" height="18.75" rx="9.375" stroke="#fff" stroke-width="1.25"/></svg><svg width="20" height="21" fill="none" viewBox="0 0 20 21" id="arrow2" x="64" y="25" xmlns="http://www.w3.org/2000/svg"><path d="M6.524 9.667h10.143v1.666H6.523l4.47 4.47-1.178 1.179L3.334 10.5l6.481-6.482 1.178 1.179-4.47 4.47z" fill="#fff"/></svg><svg width="24" height="25" fill="none" viewBox="0 0 24 25" id="mail" x="64" xmlns="http://www.w3.org/2000/svg"><path d="M6 6h12a.667.667 0 01.666.667v10.666a.667.667 0 01-.667.667H6a.666.666 0 01-.666-.667V6.667A.667.667 0 015.999 6zm6.04 5.789l-4.275-3.63L6.9 9.175l5.147 4.37 5.054-4.374-.872-1.008-4.19 3.626z" fill="#fff"/></svg><svg width="26" height="26" fill="none" viewBox="0 0 26 26" id="soc1" x="32" y="32" xmlns="http://www.w3.org/2000/svg"><path d="M6.376 12.11c4.123-1.806 6.873-2.997 8.248-3.572 3.928-1.643 4.745-1.929 5.277-1.938.116-.002.378.027.547.165a.6.6 0 01.202.386c.019.11.042.362.024.56-.213 2.248-1.134 7.706-1.603 10.224-.198 1.066-.589 1.424-.966 1.459-.822.076-1.446-.546-2.241-1.07-1.245-.821-1.948-1.332-3.157-2.133-1.396-.925-.49-1.434.305-2.265.208-.217 3.827-3.527 3.897-3.827.01-.038.017-.178-.065-.252-.083-.074-.205-.048-.293-.028-.125.028-2.114 1.35-5.966 3.965-.565.39-1.076.58-1.534.57-.505-.012-1.476-.288-2.199-.524-.885-.29-1.59-.442-1.528-.934.032-.256.383-.518 1.052-.786z" fill="#fff"/></svg><svg width="32" height="32" fill="none" viewBox="0 0 32 32" id="soc2" xmlns="http://www.w3.org/2000/svg"><path fill-rule="evenodd" clip-rule="evenodd" d="M25.844 10.858c.148-.495 0-.858-.706-.858h-2.334c-.593 0-.867.314-1.015.66 0 0-1.187 2.893-2.868 4.772-.544.544-.792.717-1.088.717-.149 0-.363-.173-.363-.667v-4.624c0-.594-.173-.858-.667-.858h-3.668c-.37 0-.594.275-.594.537 0 .562.841.692.928 2.274v3.437c0 .754-.136.89-.433.89-.791 0-2.716-2.906-3.857-6.23C8.955 10.26 8.73 10 8.134 10H5.8c-.667 0-.8.314-.8.66 0 .618.791 3.684 3.684 7.74 1.929 2.768 4.646 4.27 7.119 4.27 1.483 0 1.667-.334 1.667-.908v-2.093c0-.667.14-.8.61-.8.346 0 .94.173 2.324 1.508 1.583 1.582 1.843 2.293 2.734 2.293h2.333c.667 0 1-.334.808-.992-.21-.656-.966-1.607-1.968-2.735-.544-.643-1.36-1.335-1.607-1.681-.346-.445-.248-.643 0-1.038 0 0 2.843-4.006 3.14-5.366z" fill="#fff"/></svg><svg width="32" height="32" fill="none" viewBox="0 0 32 32" id="soc3" x="32" xmlns="http://www.w3.org/2000/svg"><path fill-rule="evenodd" clip-rule="evenodd" d="M23.825 9.428a2.507 2.507 0 011.763 1.763c.428 1.565.412 4.827.412 4.827s0 3.245-.412 4.81a2.506 2.506 0 01-1.763 1.763c-1.565.412-7.825.412-7.825.412s-6.244 0-7.825-.428a2.506 2.506 0 01-1.763-1.763C6 19.263 6 16.002 6 16.002s0-3.246.412-4.81a2.557 2.557 0 011.763-1.78C9.74 9 16 9 16 9s6.26 0 7.825.428zm-4.613 6.574L14.007 19v-5.997l5.205 2.999z" fill="#fff"/></svg><svg width="32" height="32" fill="none" viewBox="0 0 32 32" id="soc4" y="32" xmlns="http://www.w3.org/2000/svg"><path d="M12.667 16a3.333 3.333 0 116.667 0 3.333 3.333 0 01-6.667 0zm-1.802 0a5.135 5.135 0 1010.27 0 5.135 5.135 0 00-10.27 0zm9.273-5.338a1.2 1.2 0 101.2-1.2 1.2 1.2 0 00-1.2 1.2zM11.96 24.14c-.975-.045-1.505-.207-1.857-.344a3.109 3.109 0 01-1.15-.748 3.086 3.086 0 01-.748-1.15c-.138-.352-.3-.882-.344-1.857-.049-1.054-.058-1.37-.058-4.04 0-2.671.01-2.987.058-4.042.044-.975.208-1.504.344-1.857.181-.467.398-.8.748-1.15.35-.35.682-.567 1.15-.748.352-.138.882-.3 1.857-.344 1.054-.05 1.37-.06 4.04-.06s2.986.01 4.041.059c.975.044 1.504.208 1.857.344.467.18.8.398 1.15.748.35.35.567.683.749 1.15.137.352.3.882.343 1.857.049 1.055.059 1.37.059 4.041 0 2.67-.01 2.986-.059 4.041-.044.975-.207 1.505-.343 1.857a3.1 3.1 0 01-.748 1.15 3.11 3.11 0 01-1.15.748c-.353.137-.883.3-1.858.344-1.054.048-1.37.058-4.041.058-2.67 0-2.986-.01-4.04-.058zm-.083-18.08c-1.064.049-1.792.218-2.427.465a4.905 4.905 0 00-1.772 1.153A4.886 4.886 0 006.525 9.45c-.247.636-.416 1.363-.464 2.427C6.01 12.943 6 13.284 6 16s.011 3.057.06 4.123c.049 1.064.218 1.791.465 2.427a4.888 4.888 0 001.153 1.771 4.916 4.916 0 001.772 1.154c.636.247 1.363.416 2.427.464 1.067.049 1.407.061 4.123.061s3.057-.011 4.123-.06c1.064-.049 1.791-.218 2.427-.465a4.917 4.917 0 001.771-1.154 4.899 4.899 0 001.154-1.77c.247-.637.417-1.364.464-2.428.049-1.067.06-1.407.06-4.123s-.011-3.057-.06-4.123c-.048-1.064-.217-1.792-.464-2.427a4.918 4.918 0 00-1.154-1.772 4.893 4.893 0 00-1.77-1.153c-.637-.247-1.364-.417-2.427-.464C19.057 6.012 18.717 6 16 6s-3.057.011-4.124.06z" fill="#fff"/></svg></svg>