<?xml version="1.0" encoding="utf-8"?><svg xmlns="http://www.w3.org/2000/svg" xmlns:xlink="http://www.w3.org/1999/xlink"><symbol fill="none" viewBox="0 0 20 20" id="arrow" xmlns="http://www.w3.org/2000/svg"><path d="M12.607 10.625H5v-1.25h7.607L9.255 6.023l.884-.884L15 10l-4.861 4.861-.884-.883 3.352-3.353z" fill="#fff"/><rect x=".625" y=".625" width="18.75" height="18.75" rx="9.375" stroke="#fff" stroke-width="1.25"/></symbol><symbol fill="none" viewBox="0 0 20 21" id="arrow2" xmlns="http://www.w3.org/2000/svg"><path d="M6.524 9.667h10.143v1.666H6.523l4.47 4.47-1.178 1.179L3.334 10.5l6.481-6.482 1.178 1.179-4.47 4.47z" fill="#fff"/></symbol><symbol fill="none" viewBox="0 0 20 20" id="arrow3" xmlns="http://www.w3.org/2000/svg"><path d="M13.476 10.833H3.333V9.167h10.143l-4.47-4.47 1.179-1.179L16.666 10l-6.481 6.482-1.178-1.179 4.47-4.47z" fill="#fff"/></symbol><symbol fill="none" viewBox="0 0 32 32" id="close" xmlns="http://www.w3.org/2000/svg"><path d="M16.485 14.6l6.6-6.6 1.886 1.885-6.6 6.6 6.6 6.6-1.886 1.886-6.6-6.6-6.6 6.6L8 23.085l6.6-6.6-6.6-6.6L9.885 8l6.6 6.6z" fill="#fff"/></symbol><symbol fill="none" viewBox="0 0 24 24" id="close2" xmlns="http://www.w3.org/2000/svg"><path d="M12 10.586l4.95-4.95 1.415 1.414-4.95 4.95 4.95 4.95-1.414 1.414-4.95-4.95-4.95 4.95-1.414-1.414 4.95-4.95-4.95-4.95L7.05 5.636l4.95 4.95z" fill="#fff"/></symbol><symbol fill="none" viewBox="0 0 546 194" id="https404" xmlns="http://www.w3.org/2000/svg"><g clip-path="url(#fclip0_124_615)"><path d="M149.692 19.54H85.819L40.874 83.817H87.67L107.106 53.3v66.428H64.78l9.829-15.421H26.548L13.89 122.414v36.968h89.995v11.067h45.806v-11.067h21.965v-39.653h-21.965V19.539zm.001 163.944h-45.806v10.715h45.806v-10.715zm119.728-32.953a28.148 28.148 0 01-13.518-3.076 23.945 23.945 0 01-8.851-7.639 37.946 37.946 0 01-4.953-12.044 87.935 87.935 0 01-2.412-14.469c-.356-4.641-.534-10.176-.534-16.607 0-6.43.173-11.888.521-16.373h-44.867c-.426 5.215-.643 10.672-.652 16.373a168.103 168.103 0 004.015 38.441 97.394 97.394 0 0012.592 30.398 56.596 56.596 0 0023.463 20.635c9.907 4.814 21.639 7.221 35.196 7.221 13.556 0 25.288-2.407 35.195-7.221a56.676 56.676 0 0023.463-20.635 92.214 92.214 0 008.382-16.75h-56.469a29.968 29.968 0 01-10.571 1.746z" fill="#87E3CE"/><path d="M247.053 53.575a24.208 24.208 0 018.851-7.639 31.284 31.284 0 0127.048 0 24.262 24.262 0 018.838 7.639 38.224 38.224 0 014.954 12.044 86.854 86.854 0 012.411 14.47c.348 4.64.526 10.176.535 16.607.008 6.43-.17 11.966-.535 16.607a86.647 86.647 0 01-2.411 14.469c-.248.99-.522 1.929-.796 2.854h45.702a173.893 173.893 0 003.05-33.891 167.317 167.317 0 00-4.028-38.441 97.52 97.52 0 00-12.579-30.399A56.651 56.651 0 00304.63 7.274C294.714 2.45 282.983.039 269.435.039c-13.548 0-25.28 2.412-35.196 7.235a56.577 56.577 0 00-23.463 20.621 97.56 97.56 0 00-12.592 30.399l-.235 1.108h46.145a30.806 30.806 0 012.959-5.827zM75.013 83.817H28.216l-14.325 20.491h48.06l13.062-20.491zm84 86.632h-45.806v13.035h45.806v-13.035zm6.062-169.106h-51.163L101.189 19.54h63.886V1.343zm346.06 18.197H447.25l-44.933 64.277h46.797L468.549 53.3v66.428h-42.325l9.828-15.421h-48.061l-12.657 18.106v36.968h89.996v11.067h45.805v-11.067H533.1v-39.653h-21.965V19.539zm.001 163.944H465.33v10.715h45.806v-10.715z" fill="#87E3CE"/><path d="M436.456 83.817H389.66l-14.326 20.491h48.061l13.061-20.491zm84 86.632H474.65v13.035h45.806v-13.035zm6.048-169.106H475.34L462.631 19.54h63.873V1.343zM229.743 80.141a88.029 88.029 0 012.399-14.469 49.698 49.698 0 011.994-6.257h-46.158a150.82 150.82 0 00-3.128 20.96h44.867c.013-.13.013-.234.026-.234zm120.64 50.485h-45.701a34.461 34.461 0 01-4.158 9.19 24.026 24.026 0 01-8.838 7.639c-.955.503-1.944.938-2.959 1.304h56.481a104.775 104.775 0 004.198-13.648c.352-1.46.678-2.959.977-4.485z" fill="#87E3CE"/><path d="M134.716 19.54H70.83L25.897 83.817h46.797L92.129 53.3v66.428H49.804l9.828-15.421h-48.06l-12.658 18.106v36.968h90.009v11.067h45.793v-11.067h21.964v-39.653h-21.964V19.539zm.014 163.944H88.924v10.715h45.806v-10.715zm119.714-32.953a28.148 28.148 0 01-13.518-3.076 23.81 23.81 0 01-8.837-7.639 37.637 37.637 0 01-4.967-12.044 87.933 87.933 0 01-2.411-14.469c-.348-4.641-.526-10.176-.535-16.607-.009-6.43.165-11.888.522-16.373H179.83c-.434 5.215-.652 10.672-.652 16.373a168.214 168.214 0 004.015 38.441 97.442 97.442 0 0012.592 30.398 56.593 56.593 0 0023.464 20.635c9.907 4.814 21.638 7.221 35.195 7.221 13.557 0 25.288-2.407 35.195-7.221a56.679 56.679 0 0023.464-20.635 92.21 92.21 0 008.381-16.75h-56.468a29.977 29.977 0 01-10.572 1.746z" fill="#C0283F"/><path d="M232.089 53.575a24.047 24.047 0 018.838-7.639 31.284 31.284 0 0127.048 0 24.262 24.262 0 018.838 7.639 37.924 37.924 0 014.953 12.044 86.753 86.753 0 012.412 14.47c.365 4.64.543 10.176.534 16.607-.008 6.43-.187 11.966-.534 16.607a86.547 86.547 0 01-2.412 14.469c-.247.99-.521 1.929-.795 2.854h45.728a173.893 173.893 0 003.05-33.891 167.317 167.317 0 00-4.028-38.441 97.52 97.52 0 00-12.579-30.399 56.651 56.651 0 00-23.463-20.621C279.755 2.45 268.023.039 254.484.039c-13.54 0-25.272 2.412-35.196 7.235a56.577 56.577 0 00-23.463 20.621 97.56 97.56 0 00-12.592 30.399l-.235 1.108h46.145a29.995 29.995 0 012.946-5.827zM60.036 83.817H13.24l-14.326 20.491h48.061l13.061-20.491zm83.998 86.632H98.229v13.035h45.805v-13.035zm6.065-169.106H98.935L86.213 19.54h63.886V1.343zM496.157 19.54h-63.886l-44.932 64.277h46.796L453.571 53.3v66.428h-42.326l9.829-15.421h-48.061l-12.658 18.106v36.968h89.996v11.067h45.806v-11.067h21.964v-39.653h-21.964V19.539zm0 163.944h-45.805v10.715h45.805v-10.715z" fill="#C0283F"/><path d="M421.478 83.817h-46.797l-14.326 20.491h48.062l13.061-20.491zm84 86.632h-45.806v13.035h45.806v-13.035zm6.049-169.106h-51.163l-12.71 18.197h63.873V1.343zM214.765 80.141a86.75 86.75 0 012.411-14.469 50.004 50.004 0 011.981-6.257H173a150.672 150.672 0 00-3.129 20.96h44.868c.013-.13.013-.234.026-.234zm120.642 50.485h-45.702a34.461 34.461 0 01-4.158 9.19 24.018 24.018 0 01-8.838 7.639c-.955.503-1.944.938-2.959 1.304h56.482a104.771 104.771 0 004.197-13.648c.352-1.46.678-2.959.978-4.485z" fill="#C0283F"/><path d="M141.313 19.54H77.427L32.495 83.817H79.29L98.727 53.3v66.428H56.401l9.829-15.421H18.169L5.512 122.414v36.968h89.995v11.067h45.806v-11.067h21.965v-39.653h-21.965V19.539zm-.001 163.944H95.506v10.715h45.806v-10.715zm119.73-32.953a28.239 28.239 0 01-13.531-3.076 24.026 24.026 0 01-8.838-7.639 37.97 37.97 0 01-4.953-12.044 86.65 86.65 0 01-2.412-14.469c-.347-4.641-.525-10.176-.534-16.607-.009-6.43.165-11.888.521-16.373h-44.867c-.426 5.215-.643 10.672-.652 16.373a168.17 168.17 0 004.054 38.441 97.118 97.118 0 0012.592 30.398 56.593 56.593 0 0023.464 20.635c9.907 4.814 21.638 7.221 35.195 7.221 13.557 0 25.288-2.407 35.195-7.221a56.567 56.567 0 0023.464-20.635 91.435 91.435 0 008.394-16.75h-56.521a30.058 30.058 0 01-10.571 1.746z" fill="#fff"/><path d="M238.672 53.575a24.25 24.25 0 018.837-7.639 31.285 31.285 0 0127.062 0 24.262 24.262 0 018.838 7.639 38.222 38.222 0 014.953 12.044 88.256 88.256 0 012.412 14.47c.347 4.64.525 10.176.534 16.607.009 6.43-.169 11.966-.534 16.607a88.059 88.059 0 01-2.412 14.469c-.248.99-.521 1.929-.795 2.854h45.649a174.914 174.914 0 003.051-33.891 168.216 168.216 0 00-4.028-38.441 97.254 97.254 0 00-12.592-30.399 56.54 56.54 0 00-23.464-20.621C286.259 2.45 274.527.039 260.988.039c-13.539 0-25.271 2.412-35.195 7.235a56.574 56.574 0 00-23.464 20.621 97.254 97.254 0 00-12.501 30.36l-.234 1.108h46.145a29.914 29.914 0 012.933-5.788zM66.634 83.817H19.837L5.512 104.308h48.06l13.062-20.491zm83.998 86.632h-45.806v13.035h45.806v-13.035zm6.046-169.106h-51.164L92.804 19.54h63.874V1.343zM502.755 19.54h-63.886l-44.933 64.277h46.797L460.168 53.3v66.428h-42.325l9.828-15.421H379.61l-12.657 18.106v36.968h89.996v11.067h45.806v-11.067h21.964v-39.653h-21.964V19.539zm0 163.944h-45.806v10.715h45.806v-10.715z" fill="#fff"/><path d="M428.076 83.817h-46.797l-14.326 20.491h48.061l13.062-20.491zm83.998 86.632h-45.806v13.035h45.806v-13.035zm6.05-169.106h-51.163L454.238 19.54h63.886V1.343zM221.349 80.141a88.15 88.15 0 012.412-14.469 49.839 49.839 0 011.981-6.257h-46.145a148.856 148.856 0 00-3.128 20.96h44.867c.011-.077.015-.155.013-.234zm120.655 50.485h-45.701a34.461 34.461 0 01-4.158 9.19 25.882 25.882 0 01-11.797 8.969h56.481a106.7 106.7 0 004.211-13.648c.339-1.486.665-2.985.964-4.511zM75.003 57.55H22.549v1.813h52.454V57.55z" fill="#fff"/><path d="M75.003 59.363H22.549v1.812h52.454v-1.812z" fill="#070D20"/><path d="M17.906 57.55h-1.812v1.813h1.812V57.55zm-5.149 0h-1.812v1.813h1.812V57.55zm-6.217 0H-.735v1.813h7.273V57.55z" fill="#C0283F"/><path d="M413.2 114.541h-52.454v1.812H413.2v-1.812z" fill="#fff"/><path d="M413.2 116.353h-52.454v1.812H413.2v-1.812z" fill="#070D20"/><path d="M356.093 114.541h-1.812v1.812h1.812v-1.812zm-5.148 0h-1.812v1.812h1.812v-1.812z" fill="#C0283F"/><path d="M123.362 185.296h52.454v-1.812h-52.454v1.812z" fill="#fff"/><path d="M123.362 187.108h52.454v-1.811h-52.454v1.811z" fill="#070D20"/><path d="M180.469 185.296h1.812v-1.812h-1.812v1.812zm5.147 0h1.812v-1.812h-1.812v1.812zm6.206 0h7.274v-1.812h-7.274v1.812z" fill="#87E3CE"/><path d="M288.728 14.313h52.454V12.5h-52.454v1.812zM479.263 59.35h52.454v-1.812h-52.454v1.812zm9.92 82.174h52.454v-1.812h-52.454v1.812zm-305.91 27.048h52.454v-1.812h-52.454v1.812z" fill="#fff"/><path d="M349.525 67.601h-2.281v2.281h2.281v-2.28zm6.92 0h-2.281v2.281h2.281v-2.28z" fill="#87E3CE"/><path d="M440.719 8.16h-2.281v2.281h2.281v-2.28z" fill="#C0283F"/><path d="M538.316 57.316h-2.281v2.281h2.281v-2.28zm6.684 0h-2.281v2.281H545v-2.28z" fill="#fff"/><path d="M447.654 8.16h-2.281v2.281h2.281v-2.28z" fill="#C0283F"/></g><defs><clipPath id="fclip0_124_615"><path fill="#fff" d="M0 0h546v194H0z"/></clipPath></defs></symbol><symbol fill="none" viewBox="0 0 24 24" id="logo-dev" xmlns="http://www.w3.org/2000/svg"><path d="M12.162 14.79L1 2v18.604h5.581l5.581-5.814z" fill="#fff"/><path d="M12.162 14.79L23.324 2v18.604h-5.581l-5.581-5.814z" fill="#FF6161"/></symbol><symbol fill="none" viewBox="0 0 12 12" id="m1" xmlns="http://www.w3.org/2000/svg"><path d="M1.5 1.5h9a.5.5 0 01.5.5v8a.5.5 0 01-.5.5h-9A.5.5 0 011 10V2a.5.5 0 01.5-.5zm4.53 4.341L2.824 3.12l-.647.762 3.86 3.278 3.79-3.28-.654-.757-3.143 2.72z" fill="#111"/></symbol><symbol fill="none" viewBox="0 0 12 12" id="m2" xmlns="http://www.w3.org/2000/svg"><path d="M9.182 8.682L6 11.864 2.818 8.682a4.5 4.5 0 116.364 0zM6 7.5a2 2 0 100-4 2 2 0 000 4zm0-1a1 1 0 110-2 1 1 0 010 2z" fill="#111"/></symbol><symbol fill="none" viewBox="0 0 24 25" id="mail" xmlns="http://www.w3.org/2000/svg"><path d="M6 6h12a.667.667 0 01.666.667v10.666a.667.667 0 01-.667.667H6a.666.666 0 01-.666-.667V6.667A.667.667 0 015.999 6zm6.04 5.789l-4.275-3.63L6.9 9.175l5.147 4.37 5.054-4.374-.872-1.008-4.19 3.626z" fill="#fff"/></symbol><symbol fill="none" viewBox="0 0 174 60" id="name" xmlns="http://www.w3.org/2000/svg"><path d="M23.274 29.504l.362-2.171c1.43-1.58 3.298-3.015 5.604-4.306A1142.44 1142.44 0 0042.677 12.26c1.675-1.547 2.476-3.012 2.404-4.395l-1.025-.553c-.647-.402-3.01-.362-7.091.12-1.345.178-3.317.678-5.915 1.498-.426.136-1.09.298-1.993.487-4.74 1.058-8.795 2.854-12.167 5.388-2.707 2.016-4.013 3.448-3.919 4.296.01.088.074.125.193.112.119-.013.29-.091.516-.235a2.43 2.43 0 01-.53.103 5.787 5.787 0 01-2.25-.195c-.871-.258-1.335-.636-1.39-1.133-.022-.205.033-.433.165-.684 1.683-3.295 6.27-6.274 13.761-8.939.77-.292 2.339-.806 4.706-1.542 2.063-.583 3.582-1.18 4.558-1.792 2.432-.506 6.203-1.25 11.312-2.23 1.298.123 2.594.231 3.89.325 1.429.226 2.594.6 3.495 1.122l.86 1.237-.87 3.026-2.393 2.308c-.766 1.417-2.996 3.395-6.688 5.935a1919.924 1919.924 0 01-8.495 5.38l-1.174 1.906c.556 1.034 1.805 1.443 3.748 1.228a13.162 13.162 0 001.77-.33c.74-.2 1.732-.31 2.974-.328 1.437-.07 2.451-.154 3.043-.249.591-.095 1.452.062 2.58.47 1.258.482 2.148.724 2.67.725l1.081 1.612c-.146.49-.024 1.053.368 1.69l-.473 1.163c-.146.134-.48.57-1 1.31-.523.708-1.364 1.808-2.524 3.298a95.87 95.87 0 01-2.497 1.919c-.133.607-.645 1.24-1.535 1.901-.52.384-1.208 1.052-2.066 2.005-1.244.73-2.164 1.483-2.76 2.26-2.93 2.544-6.697 5.67-11.304 9.376-4.364 2.999-8.727 4.74-13.088 5.223-2.38.263-4.343.11-5.89-.458-1.549-.568-2.318-1.356-2.31-2.364a1.837 1.837 0 01-.334-.85c-.133-1.2.422-1.986 1.665-2.36 2.644 2.134 5.573 3.023 8.784 2.668 6.106-.677 13.693-6.474 22.758-17.394 1.148-.512 1.876-1.184 2.185-2.018.113-.071.414-.43.904-1.077.305-.151.838-.95 1.601-2.397l-1.215-1.73c-2.579-.454-5.084-.428-7.517.078-.588.124-1.683.201-3.286.23-.267.119-.78.205-1.536.26-1.83.143-3.271.362-4.323.655l-1.109-.232c-.373-.106-.615-.302-.727-.585zm49.311 3.508c1.025-.528 1.723-.93 2.094-1.209a6.777 6.777 0 001.51-1.587c.136-.223.551-.639 1.246-1.248.477-.408.69-.846.637-1.314-.058-.526-.503-.744-1.336-.651-1.23.136-2.58.626-4.052 1.47-2.004 1.11-4.296 3.613-6.874 7.51-.448.67-.657 1.137-.628 1.4.013.118.06.172.139.163.198-.022.538-.208 1.022-.557.532-.266 1.698-.973 3.498-2.12 1.839-1.15 2.754-1.77 2.744-1.857zm14.31 9.071c-.286.683-.788 1.227-1.505 1.632-1.171.662-2.799 1.73-4.883 3.204-4.875 2.375-8.482 3.692-10.821 3.951-2.419.268-4.66-.209-6.721-1.431-2.026-1.256-3.139-2.79-3.34-4.603-.284-2.573.015-4.767.897-6.581.74-1.296 1.826-3.266 3.26-5.91.694-.61 1.693-1.565 2.994-2.863.928-1.405 3.06-2.81 6.396-4.216 1.498-.61 3-.998 4.507-1.165 2.776-.307 4.61.318 5.506 1.877.296.5.19 1.177-.317 2.033-.809 1.392-2.044 2.742-3.706 4.05-.367.308-1.967 1.447-4.799 3.418-.066.126-.209.29-.427.491-.995.436-2.378 1.359-4.149 2.768-.552.446-1.41 1.044-2.57 1.795a8.101 8.101 0 00-.942.193l-1.995 1.02c.512 4.62 2.67 6.704 6.473 6.253 1.348-.149 3.13-.73 5.345-1.746 1.6-.769 3.221-1.54 4.861-2.314 1.108-.507 1.869-.888 2.282-1.14.87-.482 1.46-.961 1.767-1.44.133-.25.319-.39.556-.416.873-.097 1.316.283 1.33 1.14zm47.216 2.009l-.064-.037a.838.838 0 01-.312-.1l-1.942-.14-.465-.392-.506-1.853.137-3.656-.287-.412.468-.673-.044-.395.245-1.048-.41-.443.308-.478-.32-2.895.433-.98-.657-3.213c.041-.36.028-.654-.038-.884-.43-.988-.86-1.607-1.289-1.855l-3.25 2.18.019.176a5.767 5.767 0 00-1.663 1.294c-.033.063-.396.591-1.088 1.585l-3.554 2.703-.273.252c-1.069.858-1.655 1.367-1.758 1.526-1.811 1.77-3.082 3.154-3.815 4.152a242.088 242.088 0 00-2.551 1.97l-.575.241-2.378-.27-.81-1.33 1.215-2.621.677-3.672c-.086-.05-.094-.122-.024-.219l.095-.232a.318.318 0 00.04-.182c.153-.432.234-.781.245-1.049-.016-.146.011-.445.081-.897.041-.715.087-1.03.136-.947a8.481 8.481 0 00.165-2.86 1.614 1.614 0 00-.733-.096l-1.107.877a.48.48 0 01-.313.434l-.114.058c-.192.08-.359.202-.502.366l-.168.107-.11.101-3.962 3.902-.657 1.138a.586.586 0 01-.452.272l-.988.864-.303.522-1.365 1.262a2.614 2.614 0 01-.359.572l-3.254 3.779c-.231.085-.48.186-.749.305-.202.348-.487.853-.855 1.515a21.084 21.084 0 01-2.904 4.229c-.5.558-.998 1.131-1.495 1.72a3.801 3.801 0 00-.812 1.91l.063 2.745c-.006 1.392-.366 2.127-1.08 2.206-2.34.26-3.573-.551-3.7-2.431-.051-1.179.36-2.897 1.235-5.154.186-.494.656-1.138 1.411-1.932l1.729-1.79c.225-.498.776-1.329 1.65-2.491l-.06.006c-.11-.639.175-1.144.857-1.515.03-.092.106-.308.229-.647.983-.908 1.799-1.517 2.447-1.825 1.18-.575 2.62-2.08 4.316-4.518l.015.131 2.011-1.954 1.643-1.47c.189-.109.339-.2.452-.271l5.055-4.911c.632-.455 1.485-1.274 2.558-2.459.284-.327.536-.592.754-.794.037-.033.24-.19.611-.467l1.924-.568 1.916.454c.128.43.207.776.236 1.04.039.35-.031.624-.21.822.135.133.249.253.341.361l-.843 4.889c-.439 1.114-.694 2.074-.765 2.881l-.17 2.816.773-.085 5.144-4.655c.027-.12.118-.205.273-.252l.06-.006.61-.468 6.217-5.838.129.075 2.551-1.97 2.574-.685.633.285c.092.109.277.147.555.117l1.162 1.247 1.178 4.665-.338.748a.49.49 0 01.307.054l-.068 8.088-.496.41.519 6.87-.467.672.529.43-.258.384-1.201.577zm38.879-2.618c.02-.18.143-.341.367-.485.225-.143.259-.383.101-.721a1.038 1.038 0 00-.613-.643c-.822-.175-2.024-.516-3.605-1.021-3.112-1.283-4.987-2.63-5.625-4.04l-1.021-2.15c-.108-.255-.109-.625-.002-1.11.104-.515.146-.86.126-1.035-.136-1.228.144-2.872.839-4.932-.155-.309-.149-.798.018-1.468.167-.67.212-1.163.137-1.48-.019-.175-.009-.443.032-.803.08-.364.112-.619.096-.765-.073-2.833-.347-4.401-.822-4.704-1.086-.738-2.937-.962-5.554-.673-3.568.396-6.331 1.723-8.288 3.982-.189.11-.45.286-.785.53-.357.395-.915.975-1.673 1.74-.483.35-1.144.91-1.981 1.684a22.074 22.074 0 00-1.595 1.908c-2.339 3.16-3.649 5.836-3.928 8.027a65.47 65.47 0 00-.576 2.95c-.231 1.18-.302 2.164-.215 2.954.256 2.31 1.13 3.5 2.623 3.572a9.347 9.347 0 001.68-.053 19.42 19.42 0 006.704-1.985c.417-.224.948-.682 1.594-1.375.682-.727 1.172-1.196 1.469-1.406.821-.565 1.696-1.357 2.627-2.378.785-.886 1.571-1.757 2.36-2.614.36-.366.6-.555.719-.568l.419 1.063c.122.372.363.922.725 1.652.264.207.601.54 1.013.997.122.372.36.893.715 1.564.39.253 1.297.833 2.722 1.741 1.425.908 3.232 1.462 5.422 1.664a32.68 32.68 0 002.1.478c.36-.01.918-.043 1.675-.097zM158.21 25.44l-.852 2.092a2.419 2.419 0 01-.392.266c-.587.864-1.153 1.726-1.7 2.586-.962 1.468-1.665 2.182-2.111 2.142-2.446 3.645-5.393 5.851-8.84 6.618-.588.124-.953-.087-1.094-.634-.048-.438-.118-.89-.21-1.353-.277-1.42-.122-2.917.466-4.491.153-.432.835-1.883 2.047-4.356.527-1.035 1.764-2.548 3.711-4.54l2.395-2.84c.198-.022.829-.491 1.891-1.408.241.003.707-.138 1.398-.421.731-.289 1.235-.448 1.513-.479.238-.026.403.015.495.123 1.614.443 2.48 1.19 2.596 2.243.094.848-.311 1.9-1.216 3.154.135.133.103.566-.097 1.298z" fill="#fff"/></symbol><symbol fill="none" viewBox="0 0 138 37" id="partners-img1" xmlns="http://www.w3.org/2000/svg"><path d="M36.148 27.758V.92h4.17V11.5c1.313-1.956 3.282-2.934 5.908-2.935 2.24 0 3.97.663 5.194 1.989 1.223 1.326 1.835 3.173 1.835 5.542v11.662h-4.17V16.675c0-3.064-1.365-4.595-4.094-4.596-1.365 0-2.485.412-3.36 1.236-.874.824-1.312 1.982-1.313 3.476v10.967h-4.17zm36.814-2.316c-1.854 1.853-4.184 2.78-6.99 2.78s-5.142-.927-7.01-2.78c-1.866-1.854-2.8-4.21-2.799-7.069 0-2.858.934-5.207 2.8-7.047 1.866-1.84 4.203-2.76 7.009-2.76 2.806-.001 5.136.92 6.99 2.76 1.853 1.841 2.78 4.19 2.78 7.047 0 2.858-.927 5.214-2.78 7.069zm-10.948-2.356c.99 1.158 2.31 1.738 3.958 1.738 1.648 0 2.968-.58 3.958-1.738.99-1.159 1.486-2.73 1.487-4.712 0-1.957-.502-3.514-1.506-4.673-1.004-1.159-2.317-1.738-3.939-1.738-1.648 0-2.967.573-3.958 1.719-.991 1.145-1.487 2.709-1.487 4.69 0 1.985.495 3.555 1.487 4.714zm23.381 5.135c-3.836 0-5.754-2.06-5.754-6.178v-9.5h-2.896V9.029h3.012l.966-5.521h3.127v5.52h7.453v3.515h-7.452v9.384c0 1.725.63 2.588 1.892 2.587 1.184 0 2.252-1.081 3.205-3.244l3.244 1.661c-1.597 3.527-3.862 5.29-6.797 5.29z" fill="#fff"/><path d="M93.533 36.331c-1.854 0-3.386-.515-4.596-1.545l1.545-3.282c.747.875 1.558 1.313 2.433 1.314 1.159 0 1.738-.747 1.738-2.24V9.028h4.17v21.626c0 2.008-.496 3.456-1.487 4.344-.991.889-2.259 1.333-3.803 1.333zm3.205-30.47a2.587 2.587 0 01-1.853-.694 2.337 2.337 0 01-.734-1.776 2.4 2.4 0 01.734-1.796 2.737 2.737 0 013.688 0 2.373 2.373 0 01.753 1.796 2.327 2.327 0 01-.753 1.757 2.565 2.565 0 01-1.835.714zm12.443 22.361c-2.137 0-3.869-.535-5.194-1.603-1.326-1.068-1.989-2.503-1.989-4.305 0-1.647.689-3.044 2.066-4.19 1.377-1.147 3.109-1.72 5.194-1.719 2.137 0 3.939.682 5.406 2.047v-2.279c0-1.338-.341-2.374-1.023-3.108-.683-.735-1.654-1.101-2.915-1.101-2.549 0-4.133 1.3-4.751 3.9l-3.823-.81c.515-2.009 1.532-3.592 3.051-4.75 1.52-1.16 3.412-1.738 5.677-1.738 2.472 0 4.422.65 5.85 1.95 1.429 1.3 2.143 3.199 2.144 5.696v11.546h-4.055v-2.356c-1.365 1.88-3.244 2.82-5.638 2.82zm.771-3.09c1.854 0 3.425-.926 4.712-2.78v-.58c-1.287-1.544-2.858-2.317-4.712-2.317-1.081 0-1.957.265-2.627.793a2.47 2.47 0 00-1.004 2.027 2.53 2.53 0 00.985 2.066c.658.528 1.54.791 2.647.791h-.001zm12.979 2.626V9.028h4.054v3.245c1.03-2.369 2.806-3.553 5.33-3.553 1.492 0 2.728.489 3.707 1.467.979.978 1.468 2.291 1.467 3.939a9.156 9.156 0 01-.502 2.896l-3.823-.386c.078-.512.13-1.027.154-1.544 0-1.931-.798-2.897-2.394-2.897-1.081 0-1.989.573-2.722 1.719-.734 1.145-1.101 2.658-1.101 4.537v9.307h-4.17zM10.103 11.894C13.21 10.168 17.467 7.803 17.467.92h-5.154c0 3.851-1.875 4.893-4.713 6.47C4.492 9.116.235 11.48.235 18.365H5.39c0-3.852 1.875-4.894 4.714-6.47zm8.921-1.581c0 3.851-1.875 4.893-4.713 6.47-3.107 1.726-7.365 4.09-7.365 10.975H12.1c0-3.852 1.875-4.893 4.713-6.47 3.108-1.727 7.364-4.091 7.364-10.975h-5.153z" fill="#fff"/></symbol><symbol fill="none" viewBox="0 0 142 31" id="partners-img2" xmlns="http://www.w3.org/2000/svg"><g clip-path="url(#mclip0_398_4883)" fill="#fff"><path d="M57.584 11.95h4.63c-.773-4.923-5.035-8.352-10.581-8.352-6.563 0-11.488 4.825-11.488 12.906 0 7.937 4.703 12.86 11.622 12.86 6.209 0 10.654-3.995 10.654-10.46v-3.012H52.244v3.551h5.78c-.073 3.577-2.46 5.841-6.233 5.841-4.199 0-7.077-3.146-7.077-8.829 0-5.646 2.927-8.78 6.98-8.78 3.024 0 5.093 1.616 5.89 4.275zm7.896 17.07h4.433v-18.8h-4.432v18.8zm2.236-21.788c1.409 0 2.56-1.079 2.56-2.4s-1.151-2.412-2.56-2.412c-1.408 0-2.57 1.077-2.57 2.412s1.142 2.4 2.562 2.4h.008zm15.471 2.988h-3.71V5.704h-4.434v4.516h-2.668v3.429h2.668v10.458c-.024 3.539 2.55 5.285 5.878 5.18a8.997 8.997 0 002.61-.44l-.748-3.467c-.424.11-.86.168-1.297.172-1.115 0-2.01-.392-2.01-2.18v-9.733h3.711V10.22zm3.431 18.8h15.589v-3.81H91.163V3.94h-4.545v25.08zm24.08.38c2.951 0 4.713-1.384 5.522-2.964h.147v2.584h4.268V16.43c0-4.97-4.053-6.464-7.642-6.464-3.955 0-6.992 1.762-7.971 5.19l4.14.59c.439-1.287 1.689-2.388 3.861-2.388 2.059 0 3.185 1.053 3.185 2.902v.073c0 1.273-1.335 1.336-4.654 1.69-3.648.392-7.138 1.48-7.138 5.718-.012 3.7 2.693 5.659 6.282 5.659zm1.457-3.252c-1.849 0-3.172-.846-3.172-2.474 0-1.703 1.481-2.412 3.455-2.695 1.164-.158 3.492-.453 4.065-.916v2.215c.012 2.087-1.679 3.864-4.348 3.864v.006zm11.742 2.872h4.36v-2.964h.256c.699 1.372 2.156 3.295 5.39 3.295 4.433 0 7.752-3.516 7.752-9.711 0-6.27-3.417-9.674-7.764-9.674-3.319 0-4.703 1.996-5.378 3.355h-.187V3.94h-4.429v25.08zm4.348-9.404c0-3.659 1.567-6.014 4.42-6.014 2.951 0 4.471 2.51 4.471 6.014 0 3.503-1.542 6.097-4.471 6.097-2.829 0-4.42-2.45-4.42-6.097zM31.788 12.53l-.042-.113-4.31-11.24a1.139 1.139 0 00-2.152.116l-2.908 8.905H10.598L7.69 1.294a1.14 1.14 0 00-2.152-.116L1.23 12.419l-.045.112a8 8 0 002.655 9.245l.016.012.037.029 6.554 4.912 3.252 2.457 1.975 1.494a1.335 1.335 0 001.61 0l1.976-1.494 3.251-2.457 6.602-4.94.018-.015a8 8 0 002.656-9.243z"/><path d="M31.788 12.53l-.043-.113a14.508 14.508 0 00-5.792 2.606l-9.46 7.154 6.023 4.552 6.601-4.94.019-.015a8 8 0 002.652-9.243zm-21.341 14.2l3.252 2.456 1.976 1.494a1.335 1.335 0 001.61 0l1.975-1.494 3.252-2.457-6.024-4.552-6.04 4.552z"/><path d="M7.021 15.023a14.52 14.52 0 00-5.79-2.604l-.045.112a8 8 0 002.655 9.245l.016.012.037.029 6.554 4.912 6.028-4.552-9.455-7.154z"/></g><defs><clipPath id="mclip0_398_4883"><path fill="#fff" transform="translate(.49 .261)" d="M0 0h141.252v30.689H0z"/></clipPath></defs></symbol><symbol fill="none" viewBox="0 0 144 26" id="partners-img3" xmlns="http://www.w3.org/2000/svg"><g clip-path="url(#nclip0_398_4886)" fill-rule="evenodd" clip-rule="evenodd" fill="#fff"><path d="M50.357 16.056c.593-1.329 1.838-2.234 3.478-2.234 1.641 0 2.857.764 3.366 2.234h-6.844zm10.747 1.696c0-4.071-2.97-7.322-7.297-7.322a7.338 7.338 0 00-7.353 7.35c0 4.072 3.054 7.352 7.466 7.352 3.056 0 5.254-1.474 6.49-3.586l-3.073-1.832c-.652 1.25-1.903 2.025-3.388 2.025-2.037 0-3.31-1.018-3.762-2.573h10.917v-1.414zm78.884 0c0-2.092-1.527-3.788-3.62-3.788-2.149 0-3.79 1.611-3.79 3.788 0 2.177 1.641 3.817 3.79 3.817 2.093 0 3.62-1.724 3.62-3.817zm-11.2.029c0-5.004 3.677-7.351 6.872-7.351 1.839 0 3.282.678 4.215 1.668V4.21h3.875v20.639h-3.875v-1.583c-.933 1.103-2.432 1.866-4.271 1.866-2.998 0-6.816-2.375-6.816-7.351zm-2.846-9.22a2.318 2.318 0 100-4.635 2.318 2.318 0 000 4.635zm-1.937 2.152h3.874v14.136h-3.874V14.473h-1.407l1.407-3.76zm-10.322 0h3.846v2.318c.707-1.47 1.98-2.319 3.903-2.319h1.556l-1.405 3.76h-1.056c-2.065 0-2.97 1.075-2.97 3.705v6.672h-3.874V10.713zm-21.798 3.816c0-5.88 4.44-10.602 10.549-10.602 3.056 0 5.625 1.1 7.486 2.853a10.272 10.272 0 011.904 2.434l-3.45 2.092c-1.273-2.347-3.225-3.562-5.912-3.562-3.761 0-6.675 3.082-6.675 6.785 0 3.789 2.857 6.786 6.817 6.786 2.998 0 5.119-1.697 5.854-4.326h-6.477v-3.76h10.72v1.583c0 5.542-3.96 10.32-10.097 10.32-6.449 0-10.72-4.891-10.72-10.603zm-4.671 3.223c0-2.092-1.527-3.788-3.62-3.788-2.15 0-3.79 1.611-3.79 3.788 0 2.177 1.64 3.817 3.79 3.817 2.093 0 3.62-1.724 3.62-3.817zm-11.2.029c0-5.004 3.677-7.351 6.873-7.351 1.838 0 3.28.678 4.214 1.668V4.21h3.875v20.639H87.1v-1.583c-.934 1.103-2.433 1.866-4.27 1.866-2.999 0-6.817-2.375-6.817-7.351zM62.01 10.713h3.847v1.583c.905-1.16 2.29-1.866 3.903-1.866 3.337 0 5.345 2.148 5.345 5.796v8.623h-3.931v-8.115c0-1.894-.877-2.997-2.602-2.997-1.471 0-2.687 1.018-2.687 3.393v7.719H62.01V10.713zM30.373 21.428l3.592-2.828c1.018 1.754 2.63 2.771 4.468 2.771 2.009 0 3.084-1.3 3.084-2.714 0-1.696-2.065-2.233-4.271-2.912-2.772-.848-5.855-1.923-5.855-5.88 0-3.309 2.886-5.938 6.873-5.938 3.366 0 5.289 1.272 6.958 2.997l-3.253 2.46c-.848-1.273-2.064-1.951-3.677-1.951-1.838 0-2.828.99-2.828 2.29 0 1.583 1.98 2.12 4.186 2.855 2.8.905 5.968 2.15 5.968 6.108 0 3.279-2.602 6.446-7.156 6.446-3.733 0-6.222-1.583-8.089-3.704zM9.222 24.849h8.258v-8.256H9.222v8.256zM.963 16.594H9.22V8.338H.963v8.256z"/><path d="M.963 24.849H9.22v-8.256H.963v8.256zm16.517-8.255h8.259V8.338H17.48v8.256zM9.222 8.338h8.258V.083H9.222v8.255z"/><path d="M9.222 16.594h8.258V8.338H9.222v8.256zm8.258-8.256h8.259V.083H17.48v8.255z"/></g><defs><clipPath id="nclip0_398_4886"><path fill="#fff" transform="translate(.922 .048)" d="M0 0h142.906v25.116H0z"/></clipPath></defs></symbol><symbol fill="none" viewBox="0 0 153 29" id="partners-img4" xmlns="http://www.w3.org/2000/svg"><g clip-path="url(#oclip0_398_4897)" fill="#fff"><path fill-rule="evenodd" clip-rule="evenodd" d="M107.043 21.938a3.509 3.509 0 01-2.51-1.012c-.664-.664-1.113-1.673-1.113-3.034 0-1.377.449-2.382 1.113-3.046a3.498 3.498 0 012.51-.995c.946 0 1.847.331 2.511.995.664.664 1.108 1.669 1.108 3.046 0 1.378-.444 2.382-1.108 3.046a3.514 3.514 0 01-2.511.996v.004zm0-12.49c-4.805 0-8.445 3.535-8.445 8.444 0 4.876 3.64 8.445 8.445 8.445s8.445-3.569 8.445-8.445c0-4.909-3.64-8.444-8.445-8.444zM67.09 22.054a3.512 3.512 0 01-2.51-1.012c-.664-.664-1.108-1.668-1.108-3.03 0-1.377.448-2.386 1.108-3.045a3.516 3.516 0 012.514-1c.947 0 1.847.336 2.511.996.664.664 1.108 1.672 1.108 3.045 0 1.378-.448 2.386-1.108 3.046a3.518 3.518 0 01-2.515 1zm0-12.49c-4.8 0-8.44 3.54-8.44 8.444 0 4.88 3.64 8.445 8.44 8.445 4.806 0 8.445-3.569 8.445-8.445 0-4.904-3.64-8.44-8.44-8.44l-.005-.004zm61.527 16.719h4.793v-9.52c0-.788.249-1.473.68-1.954a2.449 2.449 0 011.893-.788c.863 0 1.452.29 1.83.73.385.448.581 1.1.581 1.888v9.644h4.763v-9.52c0-.767.249-1.452.681-1.946a2.397 2.397 0 011.859-.796c.884 0 1.469.29 1.842.73.382.448.573 1.1.573 1.888v9.644h4.668V15.784c0-2.145-.705-3.71-1.821-4.73-1.108-1.017-2.586-1.47-4.067-1.47-1.058 0-2.025.183-2.892.619-.743.373-1.395.921-1.967 1.685-.926-1.507-2.615-2.303-4.606-2.303-1.461 0-3.142.58-4.204 1.701V9.975h-4.606v16.308zm-1.805-16.296v4.884l-.374-.075a6.075 6.075 0 00-1.186-.12c-1.017 0-1.922.25-2.569.855-.643.602-1.087 1.602-1.087 3.212v7.54h-4.781V9.975h4.656v1.577c1.15-1.386 2.938-1.66 4.063-1.66.357 0 .684.037.996.066l.282.03zm-86.188 8.436h4.672l.054.054a.221.221 0 01.063.137 3.313 3.313 0 001.095 2.312 3.32 3.32 0 002.183.747 3.029 3.029 0 002.344-.992 3.7 3.7 0 00.843-2.482V4.54h5.054v13.8c0 4.42-3.382 8.113-8.208 8.113-2.407 0-4.432-.801-5.85-2.191-1.387-1.357-2.213-3.295-2.25-5.652v-.187zM97.922 6.75l.266.08V3.127l-.125-.054a3.578 3.578 0 00-.834-.22 7.488 7.488 0 00-1.19-.096c-1.648 0-3.499.548-4.457 1.532-.959.979-1.49 2.377-1.49 4.054v.78h-2.407v4.25h2.407v12.909h4.834v-12.91h3.262V9.124h-3.262v-.722c0-.751.261-1.187.598-1.436a2.042 2.042 0 011.22-.352c.622 0 .987.083 1.178.136zM85.955 22.47l.249-.08v3.714l-.117.058c-.174.083-.456.162-.784.22a7.083 7.083 0 01-1.12.092c-1.544 0-3.279-.548-4.179-1.536-.9-.983-1.398-2.386-1.398-4.066v-7.499h-2.262V9.145h2.262V4.564h4.535v4.585h3.063v4.233H83.14v7.432c0 .755.25 1.19.564 1.444.324.261.752.352 1.146.352.585 0 .925-.083 1.104-.137v-.004z"/><path d="M7.307 26.942c.515.498.15 1.357-.58 1.357h-4.6A1.619 1.619 0 01.49 26.706v-4.448c0-.714.884-1.067 1.403-.565l5.415 5.25zm7.175.345a3.442 3.442 0 010-4.888l4.905-4.872a3.494 3.494 0 014.922 0 3.442 3.442 0 010 4.888l-4.905 4.872a3.494 3.494 0 01-4.922 0zM1.526 15.041a3.444 3.444 0 010-4.888L9.78 1.95a3.494 3.494 0 014.921 0 3.443 3.443 0 010 4.889L6.444 15.04a3.494 3.494 0 01-4.918 0zm6.748 5.851a3.443 3.443 0 010-4.888l11.15-11.08a3.494 3.494 0 014.922 0 3.446 3.446 0 010 4.889l-11.15 11.08a3.494 3.494 0 01-4.922 0z"/></g><defs><clipPath id="oclip0_398_4897"><path fill="#fff" transform="translate(.49 .912)" d="M0 0h152.292v27.388H0z"/></clipPath></defs></symbol><symbol fill="none" viewBox="0 0 32 33" id="pinmap" xmlns="http://www.w3.org/2000/svg"><g clip-path="url(#pclip0_179_2517)"><path d="M24.485 24.064L16 32.549l-8.485-8.485a12 12 0 1116.97 0zM16 20.912a5.333 5.333 0 100-10.667 5.333 5.333 0 000 10.667zm0-2.667a2.667 2.667 0 110-5.333 2.667 2.667 0 010 5.333z" fill="#E05050"/></g><defs><clipPath id="pclip0_179_2517"><path fill="#fff" transform="translate(0 .912)" d="M0 0h32v32H0z"/></clipPath></defs></symbol><symbol fill="none" viewBox="0 0 80 80" id="play" xmlns="http://www.w3.org/2000/svg"><circle cx="40" cy="40" r="39" stroke="#fff" stroke-width="2"/><path d="M48 40l-12 6.928V33.072L48 40z" fill="#fff"/></symbol><symbol fill="none" viewBox="0 0 40 40" id="quot" xmlns="http://www.w3.org/2000/svg"><path d="M0 37V17.24L6.088 3h8.73l-3.097 14.24h5.744V37H0zm22.498 0V17.24L28.587 3h8.68l-3.035 14.24H40V37H22.498z" fill="#fff"/></symbol><symbol fill="none" viewBox="0 0 917 816" id="shadow" xmlns="http://www.w3.org/2000/svg"><g filter="url(#sfilter0_f_235_1543)"><path d="M303.275 256.327c51.084-126.706 138.136-124.474 202.797-110.962 220.984 36.173 207.377 283.334-2.935 389.681-115.925 58.619-221.28 25.205-321.396-33.013-66.651-38.757-76.553-100.731-37.996-141.805 38.557-41.073 106.561 27.48 159.53-103.901z" fill="#E0E0E0" fill-opacity=".1"/></g><defs><filter id="sfilter0_f_235_1543" x="-128.767" y="-110.821" width="1045.17" height="926.542" filterUnits="userSpaceOnUse" color-interpolation-filters="sRGB"><feFlood flood-opacity="0" result="BackgroundImageFix"/><feBlend in="SourceGraphic" in2="BackgroundImageFix" result="shape"/><feGaussianBlur stdDeviation="125" result="effect1_foregroundBlur_235_1543"/></filter></defs></symbol><symbol fill="none" viewBox="0 0 26 26" id="soc1" xmlns="http://www.w3.org/2000/svg"><path d="M6.376 12.11c4.123-1.806 6.873-2.997 8.248-3.572 3.928-1.643 4.745-1.929 5.277-1.938.116-.002.378.027.547.165a.6.6 0 01.202.386c.019.11.042.362.024.56-.213 2.248-1.134 7.706-1.603 10.224-.198 1.066-.589 1.424-.966 1.459-.822.076-1.446-.546-2.241-1.07-1.245-.821-1.948-1.332-3.157-2.133-1.396-.925-.49-1.434.305-2.265.208-.217 3.827-3.527 3.897-3.827.01-.038.017-.178-.065-.252-.083-.074-.205-.048-.293-.028-.125.028-2.114 1.35-5.966 3.965-.565.39-1.076.58-1.534.57-.505-.012-1.476-.288-2.199-.524-.885-.29-1.59-.442-1.528-.934.032-.256.383-.518 1.052-.786z" fill="#fff"/></symbol><symbol fill="none" viewBox="0 0 32 32" id="soc2" xmlns="http://www.w3.org/2000/svg"><path fill-rule="evenodd" clip-rule="evenodd" d="M25.844 10.858c.148-.495 0-.858-.706-.858h-2.334c-.593 0-.867.314-1.015.66 0 0-1.187 2.893-2.868 4.772-.544.544-.792.717-1.088.717-.149 0-.363-.173-.363-.667v-4.624c0-.594-.173-.858-.667-.858h-3.668c-.37 0-.594.275-.594.537 0 .562.841.692.928 2.274v3.437c0 .754-.136.89-.433.89-.791 0-2.716-2.906-3.857-6.23C8.955 10.26 8.73 10 8.134 10H5.8c-.667 0-.8.314-.8.66 0 .618.791 3.684 3.684 7.74 1.929 2.768 4.646 4.27 7.119 4.27 1.483 0 1.667-.334 1.667-.908v-2.093c0-.667.14-.8.61-.8.346 0 .94.173 2.324 1.508 1.583 1.582 1.843 2.293 2.734 2.293h2.333c.667 0 1-.334.808-.992-.21-.656-.966-1.607-1.968-2.735-.544-.643-1.36-1.335-1.607-1.681-.346-.445-.248-.643 0-1.038 0 0 2.843-4.006 3.14-5.366z" fill="#fff"/></symbol><symbol fill="none" viewBox="0 0 32 32" id="soc3" xmlns="http://www.w3.org/2000/svg"><path fill-rule="evenodd" clip-rule="evenodd" d="M23.825 9.428a2.507 2.507 0 011.763 1.763c.428 1.565.412 4.827.412 4.827s0 3.245-.412 4.81a2.506 2.506 0 01-1.763 1.763c-1.565.412-7.825.412-7.825.412s-6.244 0-7.825-.428a2.506 2.506 0 01-1.763-1.763C6 19.263 6 16.002 6 16.002s0-3.246.412-4.81a2.557 2.557 0 011.763-1.78C9.74 9 16 9 16 9s6.26 0 7.825.428zm-4.613 6.574L14.007 19v-5.997l5.205 2.999z" fill="#fff"/></symbol><symbol fill="none" viewBox="0 0 32 32" id="soc4" xmlns="http://www.w3.org/2000/svg"><path d="M12.667 16a3.333 3.333 0 116.667 0 3.333 3.333 0 01-6.667 0zm-1.802 0a5.135 5.135 0 1010.27 0 5.135 5.135 0 00-10.27 0zm9.273-5.338a1.2 1.2 0 101.2-1.2 1.2 1.2 0 00-1.2 1.2zM11.96 24.14c-.975-.045-1.505-.207-1.857-.344a3.109 3.109 0 01-1.15-.748 3.086 3.086 0 01-.748-1.15c-.138-.352-.3-.882-.344-1.857-.049-1.054-.058-1.37-.058-4.04 0-2.671.01-2.987.058-4.042.044-.975.208-1.504.344-1.857.181-.467.398-.8.748-1.15.35-.35.682-.567 1.15-.748.352-.138.882-.3 1.857-.344 1.054-.05 1.37-.06 4.04-.06s2.986.01 4.041.059c.975.044 1.504.208 1.857.344.467.18.8.398 1.15.748.35.35.567.683.749 1.15.137.352.3.882.343 1.857.049 1.055.059 1.37.059 4.041 0 2.67-.01 2.986-.059 4.041-.044.975-.207 1.505-.343 1.857a3.1 3.1 0 01-.748 1.15 3.11 3.11 0 01-1.15.748c-.353.137-.883.3-1.858.344-1.054.048-1.37.058-4.041.058-2.67 0-2.986-.01-4.04-.058zm-.083-18.08c-1.064.049-1.792.218-2.427.465a4.905 4.905 0 00-1.772 1.153A4.886 4.886 0 006.525 9.45c-.247.636-.416 1.363-.464 2.427C6.01 12.943 6 13.284 6 16s.011 3.057.06 4.123c.049 1.064.218 1.791.465 2.427a4.888 4.888 0 001.153 1.771 4.916 4.916 0 001.772 1.154c.636.247 1.363.416 2.427.464 1.067.049 1.407.061 4.123.061s3.057-.011 4.123-.06c1.064-.049 1.791-.218 2.427-.465a4.917 4.917 0 001.771-1.154 4.899 4.899 0 001.154-1.77c.247-.637.417-1.364.464-2.428.049-1.067.06-1.407.06-4.123s-.011-3.057-.06-4.123c-.048-1.064-.217-1.792-.464-2.427a4.918 4.918 0 00-1.154-1.772 4.893 4.893 0 00-1.77-1.153c-.637-.247-1.364-.417-2.427-.464C19.057 6.012 18.717 6 16 6s-3.057.011-4.124.06z" fill="#fff"/></symbol><symbol fill="none" viewBox="0 0 24 24" id="soc5" xmlns="http://www.w3.org/2000/svg"><path d="M12.8 20v-7.3h2.45l.366-2.844H12.8V8.041c0-.823.228-1.384 1.41-1.384l1.505-.001V4.112A20.187 20.187 0 0013.521 4c-2.172 0-3.659 1.325-3.659 3.76v2.097H7.406v2.845h2.456V20H12.8z" fill="#989AA2"/></symbol><symbol fill="none" viewBox="0 0 12 12" id="togl" xmlns="http://www.w3.org/2000/svg"><path fill="#fff" d="M0 .75h12v1.5H0zm0 4.5h12v1.5H0zm0 4.5h12v1.5H0z"/></symbol></svg>