<?xml version="1.0" encoding="utf-8"?><svg width="174" height="125" viewBox="0 0 174 125" xmlns="http://www.w3.org/2000/svg" xmlns:xlink="http://www.w3.org/1999/xlink"><svg width="20" height="20" fill="none" viewBox="0 0 20 20" id="arrow" x="68" y="100" xmlns="http://www.w3.org/2000/svg"><path d="M12.607 10.625H5v-1.25h7.607L9.255 6.023l.884-.884L15 10l-4.861 4.861-.884-.883 3.352-3.353z" fill="#fff"/><rect x=".625" y=".625" width="18.75" height="18.75" rx="9.375" stroke="#fff" stroke-width="1.25"/></svg><svg width="20" height="21" fill="none" viewBox="0 0 20 21" id="arrow2" x="48" y="100" xmlns="http://www.w3.org/2000/svg"><path d="M6.524 9.667h10.143v1.666H6.523l4.47 4.47-1.178 1.179L3.334 10.5l6.481-6.482 1.178 1.179-4.47 4.47z" fill="#fff"/></svg><svg width="24" height="24" fill="none" viewBox="0 0 24 24" id="logo-dev" x="24" y="100" xmlns="http://www.w3.org/2000/svg"><path d="M12.162 14.79L1 2v18.604h5.581l5.581-5.814z" fill="#fff"/><path d="M12.162 14.79L23.324 2v18.604h-5.581l-5.581-5.814z" fill="#FF6161"/></svg><svg width="24" height="25" fill="none" viewBox="0 0 24 25" id="mail" y="100" xmlns="http://www.w3.org/2000/svg"><path d="M6 6h12a.667.667 0 01.666.667v10.666a.667.667 0 01-.667.667H6a.666.666 0 01-.666-.667V6.667A.667.667 0 015.999 6zm6.04 5.789l-4.275-3.63L6.9 9.175l5.147 4.37 5.054-4.374-.872-1.008-4.19 3.626z" fill="#fff"/></svg><svg width="174" height="60" fill="none" viewBox="0 0 174 60" id="name" xmlns="http://www.w3.org/2000/svg"><path d="M23.274 29.504l.362-2.171c1.43-1.58 3.298-3.015 5.604-4.306A1142.44 1142.44 0 0042.677 12.26c1.675-1.547 2.476-3.012 2.404-4.395l-1.025-.553c-.647-.402-3.01-.362-7.091.12-1.345.178-3.317.678-5.915 1.498-.426.136-1.09.298-1.993.487-4.74 1.058-8.795 2.854-12.167 5.388-2.707 2.016-4.013 3.448-3.919 4.296.01.088.074.125.193.112.119-.013.29-.091.516-.235a2.43 2.43 0 01-.53.103 5.787 5.787 0 01-2.25-.195c-.871-.258-1.335-.636-1.39-1.133-.022-.205.033-.433.165-.684 1.683-3.295 6.27-6.274 13.761-8.939.77-.292 2.339-.806 4.706-1.542 2.063-.583 3.582-1.18 4.558-1.792 2.432-.506 6.203-1.25 11.312-2.23 1.298.123 2.594.231 3.89.325 1.429.226 2.594.6 3.495 1.122l.86 1.237-.87 3.026-2.393 2.308c-.766 1.417-2.996 3.395-6.688 5.935a1919.924 1919.924 0 01-8.495 5.38l-1.174 1.906c.556 1.034 1.805 1.443 3.748 1.228a13.162 13.162 0 001.77-.33c.74-.2 1.732-.31 2.974-.328 1.437-.07 2.451-.154 3.043-.249.591-.095 1.452.062 2.58.47 1.258.482 2.148.724 2.67.725l1.081 1.612c-.146.49-.024 1.053.368 1.69l-.473 1.163c-.146.134-.48.57-1 1.31-.523.708-1.364 1.808-2.524 3.298a95.87 95.87 0 01-2.497 1.919c-.133.607-.645 1.24-1.535 1.901-.52.384-1.208 1.052-2.066 2.005-1.244.73-2.164 1.483-2.76 2.26-2.93 2.544-6.697 5.67-11.304 9.376-4.364 2.999-8.727 4.74-13.088 5.223-2.38.263-4.343.11-5.89-.458-1.549-.568-2.318-1.356-2.31-2.364a1.837 1.837 0 01-.334-.85c-.133-1.2.422-1.986 1.665-2.36 2.644 2.134 5.573 3.023 8.784 2.668 6.106-.677 13.693-6.474 22.758-17.394 1.148-.512 1.876-1.184 2.185-2.018.113-.071.414-.43.904-1.077.305-.151.838-.95 1.601-2.397l-1.215-1.73c-2.579-.454-5.084-.428-7.517.078-.588.124-1.683.201-3.286.23-.267.119-.78.205-1.536.26-1.83.143-3.271.362-4.323.655l-1.109-.232c-.373-.106-.615-.302-.727-.585zm49.311 3.508c1.025-.528 1.723-.93 2.094-1.209a6.777 6.777 0 001.51-1.587c.136-.223.551-.639 1.246-1.248.477-.408.69-.846.637-1.314-.058-.526-.503-.744-1.336-.651-1.23.136-2.58.626-4.052 1.47-2.004 1.11-4.296 3.613-6.874 7.51-.448.67-.657 1.137-.628 1.4.013.118.06.172.139.163.198-.022.538-.208 1.022-.557.532-.266 1.698-.973 3.498-2.12 1.839-1.15 2.754-1.77 2.744-1.857zm14.31 9.071c-.286.683-.788 1.227-1.505 1.632-1.171.662-2.799 1.73-4.883 3.204-4.875 2.375-8.482 3.692-10.821 3.951-2.419.268-4.66-.209-6.721-1.431-2.026-1.256-3.139-2.79-3.34-4.603-.284-2.573.015-4.767.897-6.581.74-1.296 1.826-3.266 3.26-5.91.694-.61 1.693-1.565 2.994-2.863.928-1.405 3.06-2.81 6.396-4.216 1.498-.61 3-.998 4.507-1.165 2.776-.307 4.61.318 5.506 1.877.296.5.19 1.177-.317 2.033-.809 1.392-2.044 2.742-3.706 4.05-.367.308-1.967 1.447-4.799 3.418-.066.126-.209.29-.427.491-.995.436-2.378 1.359-4.149 2.768-.552.446-1.41 1.044-2.57 1.795a8.101 8.101 0 00-.942.193l-1.995 1.02c.512 4.62 2.67 6.704 6.473 6.253 1.348-.149 3.13-.73 5.345-1.746 1.6-.769 3.221-1.54 4.861-2.314 1.108-.507 1.869-.888 2.282-1.14.87-.482 1.46-.961 1.767-1.44.133-.25.319-.39.556-.416.873-.097 1.316.283 1.33 1.14zm47.216 2.009l-.064-.037a.838.838 0 01-.312-.1l-1.942-.14-.465-.392-.506-1.853.137-3.656-.287-.412.468-.673-.044-.395.245-1.048-.41-.443.308-.478-.32-2.895.433-.98-.657-3.213c.041-.36.028-.654-.038-.884-.43-.988-.86-1.607-1.289-1.855l-3.25 2.18.019.176a5.767 5.767 0 00-1.663 1.294c-.033.063-.396.591-1.088 1.585l-3.554 2.703-.273.252c-1.069.858-1.655 1.367-1.758 1.526-1.811 1.77-3.082 3.154-3.815 4.152a242.088 242.088 0 00-2.551 1.97l-.575.241-2.378-.27-.81-1.33 1.215-2.621.677-3.672c-.086-.05-.094-.122-.024-.219l.095-.232a.318.318 0 00.04-.182c.153-.432.234-.781.245-1.049-.016-.146.011-.445.081-.897.041-.715.087-1.03.136-.947a8.481 8.481 0 00.165-2.86 1.614 1.614 0 00-.733-.096l-1.107.877a.48.48 0 01-.313.434l-.114.058c-.192.08-.359.202-.502.366l-.168.107-.11.101-3.962 3.902-.657 1.138a.586.586 0 01-.452.272l-.988.864-.303.522-1.365 1.262a2.614 2.614 0 01-.359.572l-3.254 3.779c-.231.085-.48.186-.749.305-.202.348-.487.853-.855 1.515a21.084 21.084 0 01-2.904 4.229c-.5.558-.998 1.131-1.495 1.72a3.801 3.801 0 00-.812 1.91l.063 2.745c-.006 1.392-.366 2.127-1.08 2.206-2.34.26-3.573-.551-3.7-2.431-.051-1.179.36-2.897 1.235-5.154.186-.494.656-1.138 1.411-1.932l1.729-1.79c.225-.498.776-1.329 1.65-2.491l-.06.006c-.11-.639.175-1.144.857-1.515.03-.092.106-.308.229-.647.983-.908 1.799-1.517 2.447-1.825 1.18-.575 2.62-2.08 4.316-4.518l.015.131 2.011-1.954 1.643-1.47c.189-.109.339-.2.452-.271l5.055-4.911c.632-.455 1.485-1.274 2.558-2.459.284-.327.536-.592.754-.794.037-.033.24-.19.611-.467l1.924-.568 1.916.454c.128.43.207.776.236 1.04.039.35-.031.624-.21.822.135.133.249.253.341.361l-.843 4.889c-.439 1.114-.694 2.074-.765 2.881l-.17 2.816.773-.085 5.144-4.655c.027-.12.118-.205.273-.252l.06-.006.61-.468 6.217-5.838.129.075 2.551-1.97 2.574-.685.633.285c.092.109.277.147.555.117l1.162 1.247 1.178 4.665-.338.748a.49.49 0 01.307.054l-.068 8.088-.496.41.519 6.87-.467.672.529.43-.258.384-1.201.577zm38.879-2.618c.02-.18.143-.341.367-.485.225-.143.259-.383.101-.721a1.038 1.038 0 00-.613-.643c-.822-.175-2.024-.516-3.605-1.021-3.112-1.283-4.987-2.63-5.625-4.04l-1.021-2.15c-.108-.255-.109-.625-.002-1.11.104-.515.146-.86.126-1.035-.136-1.228.144-2.872.839-4.932-.155-.309-.149-.798.018-1.468.167-.67.212-1.163.137-1.48-.019-.175-.009-.443.032-.803.08-.364.112-.619.096-.765-.073-2.833-.347-4.401-.822-4.704-1.086-.738-2.937-.962-5.554-.673-3.568.396-6.331 1.723-8.288 3.982-.189.11-.45.286-.785.53-.357.395-.915.975-1.673 1.74-.483.35-1.144.91-1.981 1.684a22.074 22.074 0 00-1.595 1.908c-2.339 3.16-3.649 5.836-3.928 8.027a65.47 65.47 0 00-.576 2.95c-.231 1.18-.302 2.164-.215 2.954.256 2.31 1.13 3.5 2.623 3.572a9.347 9.347 0 001.68-.053 19.42 19.42 0 006.704-1.985c.417-.224.948-.682 1.594-1.375.682-.727 1.172-1.196 1.469-1.406.821-.565 1.696-1.357 2.627-2.378.785-.886 1.571-1.757 2.36-2.614.36-.366.6-.555.719-.568l.419 1.063c.122.372.363.922.725 1.652.264.207.601.54 1.013.997.122.372.36.893.715 1.564.39.253 1.297.833 2.722 1.741 1.425.908 3.232 1.462 5.422 1.664a32.68 32.68 0 002.1.478c.36-.01.918-.043 1.675-.097zM158.21 25.44l-.852 2.092a2.419 2.419 0 01-.392.266c-.587.864-1.153 1.726-1.7 2.586-.962 1.468-1.665 2.182-2.111 2.142-2.446 3.645-5.393 5.851-8.84 6.618-.588.124-.953-.087-1.094-.634-.048-.438-.118-.89-.21-1.353-.277-1.42-.122-2.917.466-4.491.153-.432.835-1.883 2.047-4.356.527-1.035 1.764-2.548 3.711-4.54l2.395-2.84c.198-.022.829-.491 1.891-1.408.241.003.707-.138 1.398-.421.731-.289 1.235-.448 1.513-.479.238-.026.403.015.495.123 1.614.443 2.48 1.19 2.596 2.243.094.848-.311 1.9-1.216 3.154.135.133.103.566-.097 1.298z" fill="#fff"/></svg><svg width="40" height="40" fill="none" viewBox="0 0 40 40" id="quot" y="60" xmlns="http://www.w3.org/2000/svg"><path d="M0 37V17.24L6.088 3h8.73l-3.097 14.24h5.744V37H0zm22.498 0V17.24L28.587 3h8.68l-3.035 14.24H40V37H22.498z" fill="#fff"/></svg><svg width="26" height="26" fill="none" viewBox="0 0 26 26" id="soc1" x="136" y="60" xmlns="http://www.w3.org/2000/svg"><path d="M6.376 12.11c4.123-1.806 6.873-2.997 8.248-3.572 3.928-1.643 4.745-1.929 5.277-1.938.116-.002.378.027.547.165a.6.6 0 01.202.386c.019.11.042.362.024.56-.213 2.248-1.134 7.706-1.603 10.224-.198 1.066-.589 1.424-.966 1.459-.822.076-1.446-.546-2.241-1.07-1.245-.821-1.948-1.332-3.157-2.133-1.396-.925-.49-1.434.305-2.265.208-.217 3.827-3.527 3.897-3.827.01-.038.017-.178-.065-.252-.083-.074-.205-.048-.293-.028-.125.028-2.114 1.35-5.966 3.965-.565.39-1.076.58-1.534.57-.505-.012-1.476-.288-2.199-.524-.885-.29-1.59-.442-1.528-.934.032-.256.383-.518 1.052-.786z" fill="#fff"/></svg><svg width="32" height="32" fill="none" viewBox="0 0 32 32" id="soc2" x="40" y="60" xmlns="http://www.w3.org/2000/svg"><path fill-rule="evenodd" clip-rule="evenodd" d="M25.844 10.858c.148-.495 0-.858-.706-.858h-2.334c-.593 0-.867.314-1.015.66 0 0-1.187 2.893-2.868 4.772-.544.544-.792.717-1.088.717-.149 0-.363-.173-.363-.667v-4.624c0-.594-.173-.858-.667-.858h-3.668c-.37 0-.594.275-.594.537 0 .562.841.692.928 2.274v3.437c0 .754-.136.89-.433.89-.791 0-2.716-2.906-3.857-6.23C8.955 10.26 8.73 10 8.134 10H5.8c-.667 0-.8.314-.8.66 0 .618.791 3.684 3.684 7.74 1.929 2.768 4.646 4.27 7.119 4.27 1.483 0 1.667-.334 1.667-.908v-2.093c0-.667.14-.8.61-.8.346 0 .94.173 2.324 1.508 1.583 1.582 1.843 2.293 2.734 2.293h2.333c.667 0 1-.334.808-.992-.21-.656-.966-1.607-1.968-2.735-.544-.643-1.36-1.335-1.607-1.681-.346-.445-.248-.643 0-1.038 0 0 2.843-4.006 3.14-5.366z" fill="#fff"/></svg><svg width="32" height="32" fill="none" viewBox="0 0 32 32" id="soc3" x="72" y="60" xmlns="http://www.w3.org/2000/svg"><path fill-rule="evenodd" clip-rule="evenodd" d="M23.825 9.428a2.507 2.507 0 011.763 1.763c.428 1.565.412 4.827.412 4.827s0 3.245-.412 4.81a2.506 2.506 0 01-1.763 1.763c-1.565.412-7.825.412-7.825.412s-6.244 0-7.825-.428a2.506 2.506 0 01-1.763-1.763C6 19.263 6 16.002 6 16.002s0-3.246.412-4.81a2.557 2.557 0 011.763-1.78C9.74 9 16 9 16 9s6.26 0 7.825.428zm-4.613 6.574L14.007 19v-5.997l5.205 2.999z" fill="#fff"/></svg><svg width="32" height="32" fill="none" viewBox="0 0 32 32" id="soc4" x="104" y="60" xmlns="http://www.w3.org/2000/svg"><path d="M12.667 16a3.333 3.333 0 116.667 0 3.333 3.333 0 01-6.667 0zm-1.802 0a5.135 5.135 0 1010.27 0 5.135 5.135 0 00-10.27 0zm9.273-5.338a1.2 1.2 0 101.2-1.2 1.2 1.2 0 00-1.2 1.2zM11.96 24.14c-.975-.045-1.505-.207-1.857-.344a3.109 3.109 0 01-1.15-.748 3.086 3.086 0 01-.748-1.15c-.138-.352-.3-.882-.344-1.857-.049-1.054-.058-1.37-.058-4.04 0-2.671.01-2.987.058-4.042.044-.975.208-1.504.344-1.857.181-.467.398-.8.748-1.15.35-.35.682-.567 1.15-.748.352-.138.882-.3 1.857-.344 1.054-.05 1.37-.06 4.04-.06s2.986.01 4.041.059c.975.044 1.504.208 1.857.344.467.18.8.398 1.15.748.35.35.567.683.749 1.15.137.352.3.882.343 1.857.049 1.055.059 1.37.059 4.041 0 2.67-.01 2.986-.059 4.041-.044.975-.207 1.505-.343 1.857a3.1 3.1 0 01-.748 1.15 3.11 3.11 0 01-1.15.748c-.353.137-.883.3-1.858.344-1.054.048-1.37.058-4.041.058-2.67 0-2.986-.01-4.04-.058zm-.083-18.08c-1.064.049-1.792.218-2.427.465a4.905 4.905 0 00-1.772 1.153A4.886 4.886 0 006.525 9.45c-.247.636-.416 1.363-.464 2.427C6.01 12.943 6 13.284 6 16s.011 3.057.06 4.123c.049 1.064.218 1.791.465 2.427a4.888 4.888 0 001.153 1.771 4.916 4.916 0 001.772 1.154c.636.247 1.363.416 2.427.464 1.067.049 1.407.061 4.123.061s3.057-.011 4.123-.06c1.064-.049 1.791-.218 2.427-.465a4.917 4.917 0 001.771-1.154 4.899 4.899 0 001.154-1.77c.247-.637.417-1.364.464-2.428.049-1.067.06-1.407.06-4.123s-.011-3.057-.06-4.123c-.048-1.064-.217-1.792-.464-2.427a4.918 4.918 0 00-1.154-1.772 4.893 4.893 0 00-1.77-1.153c-.637-.247-1.364-.417-2.427-.464C19.057 6.012 18.717 6 16 6s-3.057.011-4.124.06z" fill="#fff"/></svg></svg>